<svg width="24" height="24" viewBox="0 0 24 24" fill="none" xmlns="http://www.w3.org/2000/svg">
<path d="M8.36261 0C6.4476 0 4.89518 1.55242 4.89518 3.46742C4.56884 4.55524 3.80737 4.96317 3.46742 5.03116C1.55242 5.03116 0 6.58358 0 8.49858C0 9.29143 0.266102 10.0221 0.713867 10.6062C1.55692 11.8572 1.03126 13.0765 0.663052 13.5297C0.246042 14.1021 0 14.807 0 15.5694C0 17.4844 1.55242 19.0368 3.46742 19.0368C4.39207 19.1947 4.80453 20.0998 4.89518 20.5326C4.89518 22.4476 6.4476 24 8.36261 24C9.12498 24 9.8299 23.754 10.4023 23.337C10.8555 22.9687 12.0748 22.4431 13.3258 23.2861C13.9099 23.7339 14.6406 24 15.4334 24C17.3484 24 18.9688 22.6515 18.9688 20.7365C19.1048 19.6487 20.17 19.1048 20.6006 19.0368C22.5156 19.0368 24 17.4844 24 15.5694C24 14.807 23.754 14.1021 23.337 13.5297C22.9687 13.0765 22.4431 11.8572 23.2861 10.6062C23.7339 10.0221 24 9.29143 24 8.49858C24 6.58358 22.4476 5.03116 20.5326 5.03116C19.336 4.76051 19.0142 3.8759 18.9688 3.46742C18.9688 1.55242 17.3484 0 15.4334 0C14.6406 0 13.9099 0.266102 13.3258 0.713867C12.0748 1.55692 10.8555 1.03126 10.4023 0.663052C9.8299 0.246042 9.12498 0 8.36261 0Z" fill="url(#paint0_linear_1710_8326)"/>
<circle cx="11.7612" cy="11.6265" r="9.04249" fill="#545A7C"/>
<circle cx="12.1694" cy="12.4419" r="9.04249" fill="url(#paint1_linear_1710_8326)"/>
<path d="M8.85694 16V14.74L12.0969 11.68C12.3529 11.448 12.5409 11.24 12.6609 11.056C12.7809 10.872 12.8609 10.704 12.9009 10.552C12.9489 10.4 12.9729 10.26 12.9729 10.132C12.9729 9.796 12.8569 9.54 12.6249 9.364C12.4009 9.18 12.0689 9.088 11.6289 9.088C11.2769 9.088 10.9489 9.156 10.6449 9.292C10.3489 9.428 10.0969 9.64 9.88894 9.928L8.47294 9.016C8.79294 8.536 9.24094 8.156 9.81694 7.876C10.3929 7.596 11.0569 7.456 11.8089 7.456C12.4329 7.456 12.9769 7.56 13.4409 7.768C13.9129 7.968 14.2769 8.252 14.5329 8.62C14.7969 8.988 14.9289 9.428 14.9289 9.94C14.9289 10.212 14.8929 10.484 14.8209 10.756C14.7569 11.02 14.6209 11.3 14.4129 11.596C14.2129 11.892 13.9169 12.224 13.5249 12.592L10.8369 15.124L10.4649 14.416H15.2049V16H8.85694Z" fill="white"/>
<defs>
<linearGradient id="paint0_linear_1710_8326" x1="4.69122" y1="20.3966" x2="23.1161" y2="7.00283" gradientUnits="userSpaceOnUse">
<stop stop-color="#FCFEFF"/>
<stop offset="1" stop-color="#EEF6FD"/>
</linearGradient>
<linearGradient id="paint1_linear_1710_8326" x1="12.1015" y1="3.39941" x2="12.1015" y2="21.4844" gradientUnits="userSpaceOnUse">
<stop stop-color="#6B7194"/>
<stop offset="1" stop-color="#CBD5EA"/>
</linearGradient>
</defs>
</svg>
