<svg width="24" height="24" viewBox="0 0 24 24" fill="none" xmlns="http://www.w3.org/2000/svg">
<path d="M8.36261 0C6.4476 0 4.89518 1.55242 4.89518 3.46742C4.56884 4.55524 3.80737 4.96317 3.46742 5.03116C1.55242 5.03116 0 6.58358 0 8.49858C0 9.29143 0.266102 10.0221 0.713867 10.6062C1.55692 11.8572 1.03126 13.0765 0.663052 13.5297C0.246042 14.1021 0 14.807 0 15.5694C0 17.4844 1.55242 19.0368 3.46742 19.0368C4.39207 19.1947 4.80453 20.0998 4.89518 20.5326C4.89518 22.4476 6.4476 24 8.36261 24C9.12498 24 9.8299 23.754 10.4023 23.337C10.8555 22.9687 12.0748 22.4431 13.3258 23.2861C13.9099 23.7339 14.6406 24 15.4334 24C17.3484 24 18.9688 22.6515 18.9688 20.7365C19.1048 19.6487 20.17 19.1048 20.6006 19.0368C22.5156 19.0368 24 17.4844 24 15.5694C24 14.807 23.754 14.1021 23.337 13.5297C22.9687 13.0765 22.4431 11.8572 23.2861 10.6062C23.7339 10.0221 24 9.29143 24 8.49858C24 6.58358 22.4476 5.03116 20.5326 5.03116C19.336 4.76051 19.0142 3.8759 18.9688 3.46742C18.9688 1.55242 17.3484 0 15.4334 0C14.6406 0 13.9099 0.266102 13.3258 0.713867C12.0748 1.55692 10.8555 1.03126 10.4023 0.663052C9.8299 0.246042 9.12498 0 8.36261 0Z" fill="url(#paint0_linear_1710_8390)"/>
<circle cx="11.7612" cy="11.6265" r="9.04249" fill="#9F5C0D"/>
<circle cx="12.1694" cy="12.4419" r="9.04249" fill="url(#paint1_linear_1710_8390)"/>
<path d="M11.6412 16.144C11.0572 16.144 10.4772 16.068 9.90122 15.916C9.32522 15.756 8.83722 15.532 8.43722 15.244L9.19322 13.756C9.51322 13.988 9.88522 14.172 10.3092 14.308C10.7332 14.444 11.1612 14.512 11.5932 14.512C12.0812 14.512 12.4652 14.416 12.7452 14.224C13.0252 14.032 13.1652 13.768 13.1652 13.432C13.1652 13.112 13.0412 12.86 12.7932 12.676C12.5452 12.492 12.1452 12.4 11.5932 12.4H10.7052V11.116L13.0452 8.464L13.2612 9.16H8.85722V7.6H14.7372V8.86L12.4092 11.512L11.4252 10.948H11.9892C13.0212 10.948 13.8012 11.18 14.3292 11.644C14.8572 12.108 15.1212 12.704 15.1212 13.432C15.1212 13.904 14.9972 14.348 14.7492 14.764C14.5012 15.172 14.1212 15.504 13.6092 15.76C13.0972 16.016 12.4412 16.144 11.6412 16.144Z" fill="white"/>
<defs>
<linearGradient id="paint0_linear_1710_8390" x1="4.69122" y1="20.3966" x2="23.1161" y2="7.00283" gradientUnits="userSpaceOnUse">
<stop stop-color="#FFECD5"/>
<stop offset="1" stop-color="#FFE4C6"/>
</linearGradient>
<linearGradient id="paint1_linear_1710_8390" x1="12.1015" y1="3.39941" x2="12.1015" y2="21.4844" gradientUnits="userSpaceOnUse">
<stop stop-color="#C48235"/>
<stop offset="1" stop-color="#E9B475"/>
</linearGradient>
</defs>
</svg>
