<svg width="106" height="28" viewBox="0 0 106 28" fill="none" xmlns="http://www.w3.org/2000/svg">
<g clip-path="url(#clip0_153_134371)">
<path d="M43.3648 18.2497C43.2261 17.8221 43.0447 17.4265 42.8099 17.0951C42.5752 16.753 42.2978 16.4643 41.999 16.2291C41.7002 15.9939 41.3801 15.8121 41.0493 15.6625C40.7185 15.5128 40.3878 15.4059 40.057 15.3417C39.7262 15.2776 39.4061 15.2348 39.1073 15.2348H33.4626V10.2955H29.5786V28H33.4626V19.1371H39.1073C39.2567 19.1371 39.4594 19.1585 39.5661 19.2654C39.6728 19.3723 39.6942 19.5754 39.6942 19.7251V28.0107H43.5782V19.7251C43.5782 19.1905 43.5035 18.6987 43.3648 18.2604V18.2497Z" fill="#8D8D8D"/>
<path d="M49.6497 15.2349H45.7656V27.9893H49.6497V15.2349Z" fill="#8D8D8D"/>
<path d="M49.6497 10.3063H45.7656V13.9306H49.6497V10.3063Z" fill="#8D8D8D"/>
<path d="M64.9193 17.6296C64.6205 17.202 64.2684 16.8278 63.8843 16.5284C63.5001 16.2291 63.0946 15.9832 62.6785 15.7907C62.2624 15.5983 61.8249 15.4593 61.398 15.3738C60.9712 15.2882 60.5658 15.2455 60.1709 15.2455H53.8541C53.5873 15.2455 53.3312 15.2989 53.0965 15.3952C52.8617 15.4914 52.6483 15.6304 52.4776 15.8014C52.2962 15.9725 52.1575 16.1863 52.0508 16.4215C51.9547 16.6567 51.9014 16.9133 51.9014 17.1806V28H55.7854V19.137H60.1496C60.4164 19.137 60.6725 19.1798 60.8965 19.2653C61.1206 19.3509 61.3127 19.4685 61.4727 19.6288C61.6328 19.7892 61.7608 19.9816 61.8675 20.2062C61.9636 20.4307 62.0169 20.6873 62.0169 20.9759V28H65.901V20.9759C65.901 20.2917 65.8156 19.6609 65.6342 19.105C65.4635 18.549 65.2181 18.0572 64.9193 17.6189V17.6296Z" fill="#8D8D8D"/>
<path d="M77.4781 15.2135L72.2175 19.4579C72.0788 19.5648 71.9508 19.6931 71.8547 19.832V10.3063H67.9707V28H71.8547V22.1306C71.9294 22.2269 72.0041 22.3124 72.0895 22.3872L77.8942 28H83.4962L76.379 21.1257L83.6882 15.2242H77.4781V15.2135Z" fill="#8D8D8D"/>
<path d="M89.4182 10.3063H85.5342V13.9306H89.4182V10.3063Z" fill="#8D8D8D"/>
<path d="M89.4182 15.2349H85.5342V27.9893H89.4182V15.2349Z" fill="#8D8D8D"/>
<path d="M105.744 19.105C105.573 18.5491 105.328 18.0573 105.029 17.619C104.73 17.1913 104.378 16.8171 103.994 16.5178C103.61 16.2184 103.205 15.9725 102.788 15.7801C102.372 15.5877 101.935 15.4487 101.508 15.3632C101.081 15.2776 100.676 15.2349 100.281 15.2349H93.9639C93.6972 15.2349 93.4411 15.2883 93.2063 15.3845C92.9716 15.4808 92.7582 15.6197 92.5874 15.7908C92.406 15.9619 92.2673 16.1757 92.1606 16.4109C92.0646 16.6461 92.0112 16.9027 92.0112 17.17V27.9893H95.8953V19.1264H100.259C100.526 19.1264 100.782 19.1692 101.006 19.2547C101.23 19.3402 101.423 19.4578 101.583 19.6182C101.743 19.7786 101.871 19.971 101.977 20.1955C102.073 20.42 102.116 20.6766 102.116 20.9653V27.9893H106V20.9653C106 20.2811 105.915 19.6503 105.733 19.0944L105.744 19.105Z" fill="#8D8D8D"/>
<path d="M27.9138 13.984C27.9138 6.26499 21.661 0 13.9569 0C6.25287 0 0 6.26499 0 13.984C0 21.7029 6.25287 27.9679 13.9569 27.9679H14.5971V15.3204H8.40829V11.4288H24.6487V15.3204H18.4705V27.9679H27.9032V13.984H27.9138Z" fill="#8D8D8D"/>
<path d="M18.4705 27.9679H14.5864V27.9996H18.4705V27.9679Z" fill="#8D8D8D"/>
</g>
<defs>
<clipPath id="clip0_153_134371">
<rect width="106" height="28" fill="white"/>
</clipPath>
</defs>
</svg>
