<svg width="91" height="24" viewBox="0 0 91 24" fill="none" xmlns="http://www.w3.org/2000/svg">
<g clip-path="url(#clip0_354_13430)">
<path d="M37.0565 15.6426C36.938 15.2761 36.783 14.937 36.5824 14.6529C36.3818 14.3597 36.1447 14.1123 35.8894 13.9106C35.6341 13.709 35.3606 13.5533 35.0779 13.425C34.7952 13.2967 34.5126 13.205 34.2299 13.1501C33.9472 13.0951 33.6737 13.0584 33.4184 13.0584H28.5948V8.82474H25.2758V24H28.5948V16.4032H33.4184C33.546 16.4032 33.7193 16.4215 33.8105 16.5132C33.9016 16.6048 33.9199 16.7789 33.9199 16.9072V24.0092H37.2389V16.9072C37.2389 16.449 37.1751 16.0275 37.0565 15.6518V15.6426Z" fill="white"/>
<path d="M42.4272 13.0584H39.1082V23.9908H42.4272V13.0584Z" fill="white"/>
<path d="M42.4272 8.83389H39.1082V11.9404H42.4272V8.83389Z" fill="white"/>
<path d="M55.4754 15.1111C55.2201 14.7445 54.9192 14.4238 54.5909 14.1672C54.2627 13.9106 53.9162 13.6999 53.5606 13.5349C53.205 13.37 52.8311 13.2508 52.4664 13.1775C52.1016 13.1042 51.7552 13.0676 51.4178 13.0676H46.0198C45.7918 13.0676 45.573 13.1134 45.3724 13.1959C45.1718 13.2783 44.9894 13.3975 44.8435 13.5441C44.6885 13.6907 44.57 13.874 44.4788 14.0756C44.3967 14.2772 44.3511 14.4971 44.3511 14.7262V24H47.6702V16.4032H51.3995C51.6275 16.4032 51.8463 16.4398 52.0378 16.5132C52.2293 16.5865 52.3934 16.6873 52.5302 16.8247C52.667 16.9622 52.7764 17.1271 52.8676 17.3196C52.9496 17.512 52.9952 17.7319 52.9952 17.9794V24H56.3143V17.9794C56.3143 17.3929 56.2413 16.8522 56.0863 16.3757C55.9404 15.8992 55.7307 15.4776 55.4754 15.1019V15.1111Z" fill="white"/>
<path d="M66.2076 13.0401L61.7123 16.6781C61.5937 16.7697 61.4843 16.8797 61.4023 16.9988V8.83389H58.0832V24H61.4023V18.9691C61.4661 19.0515 61.5299 19.1248 61.6029 19.189L66.5632 24H71.3503L65.2684 18.1077L71.5144 13.0492H66.2076V13.0401Z" fill="white"/>
<path d="M76.4109 8.83389H73.0919V11.9404H76.4109V8.83389Z" fill="white"/>
<path d="M76.4109 13.0584H73.0919V23.9908H76.4109V13.0584Z" fill="white"/>
<path d="M90.3618 16.3757C90.2159 15.8992 90.0062 15.4777 89.7509 15.1019C89.4956 14.7354 89.1947 14.4147 88.8664 14.1581C88.5382 13.9015 88.1917 13.6907 87.8361 13.5258C87.4804 13.3608 87.1066 13.2417 86.7419 13.1684C86.3771 13.0951 86.0306 13.0584 85.6933 13.0584H80.2953C80.0673 13.0584 79.8485 13.1042 79.6479 13.1867C79.4473 13.2692 79.2649 13.3883 79.119 13.5349C78.964 13.6815 78.8455 13.8648 78.7543 14.0664C78.6722 14.268 78.6266 14.488 78.6266 14.7171V23.9908H81.9457V16.394H85.675C85.903 16.394 86.1218 16.4307 86.3133 16.504C86.5048 16.5773 86.6689 16.6781 86.8057 16.8156C86.9425 16.953 87.0519 17.118 87.1431 17.3104C87.2251 17.5029 87.2616 17.7228 87.2616 17.9702V23.9908H90.5806V17.9702C90.5806 17.3837 90.5077 16.8431 90.3527 16.3665L90.3618 16.3757Z" fill="white"/>
<path d="M23.8533 11.9863C23.8533 5.36999 18.51 0 11.9267 0C5.34329 0 0 5.36999 0 11.9863C0 18.6025 5.34329 23.9725 11.9267 23.9725H12.4738V13.1317H7.18518V9.79611H21.0631V13.1317H15.7837V23.9725H23.8442V11.9863H23.8533Z" fill="url(#paint0_linear_354_13430)"/>
<path d="M15.7837 23.9725H12.4646V24H15.7837V23.9725Z" fill="url(#paint1_linear_354_13430)"/>
</g>
<defs>
<linearGradient id="paint0_linear_354_13430" x1="0" y1="11.9902" x2="23.8533" y2="11.9902" gradientUnits="userSpaceOnUse">
<stop stop-color="#6D89F6"/>
<stop offset="0.1" stop-color="#73ACD6"/>
<stop offset="0.22" stop-color="#7BD5B2"/>
<stop offset="0.29" stop-color="#7EE5A2"/>
<stop offset="0.38" stop-color="#80F394"/>
<stop offset="0.45" stop-color="#81F88F"/>
<stop offset="0.64" stop-color="#9CF884"/>
<stop offset="1" stop-color="#D6F76B"/>
</linearGradient>
<linearGradient id="paint1_linear_354_13430" x1="12.4646" y1="23.9863" x2="15.7837" y2="23.9863" gradientUnits="userSpaceOnUse">
<stop stop-color="#6D89F6"/>
<stop offset="0.1" stop-color="#73ACD6"/>
<stop offset="0.22" stop-color="#7BD5B2"/>
<stop offset="0.29" stop-color="#7EE5A2"/>
<stop offset="0.38" stop-color="#80F394"/>
<stop offset="0.45" stop-color="#81F88F"/>
<stop offset="0.64" stop-color="#9CF884"/>
<stop offset="1" stop-color="#D6F76B"/>
</linearGradient>
<clipPath id="clip0_354_13430">
<rect width="90.5806" height="24" fill="white"/>
</clipPath>
</defs>
</svg>
