<svg width="18" height="21" viewBox="0 0 18 21" fill="none" xmlns="http://www.w3.org/2000/svg">
<path d="M17.7 14.4906C17.1469 13.5344 16.4812 11.7156 16.4812 8.5V7.83438C16.4812 3.68125 13.1531 0.278125 9.05624 0.25H8.99999C8.0163 0.25123 7.0425 0.4462 6.13416 0.823776C5.22583 1.20135 4.40076 1.75414 3.70606 2.45058C3.01136 3.14702 2.46064 3.97347 2.08534 4.88275C1.71004 5.79202 1.5175 6.76632 1.51874 7.75V8.5C1.51874 11.7156 0.853112 13.5344 0.299987 14.4906C0.166216 14.7185 0.0950145 14.9777 0.0935887 15.2419C0.092163 15.5061 0.160563 15.7661 0.291868 15.9954C0.423172 16.2247 0.61272 16.4152 0.84133 16.5477C1.06994 16.6803 1.3295 16.75 1.59374 16.75H5.24999C5.24999 17.7446 5.64507 18.6984 6.34834 19.4016C7.0516 20.1049 8.00542 20.5 8.99999 20.5C9.99455 20.5 10.9484 20.1049 11.6516 19.4016C12.3549 18.6984 12.75 17.7446 12.75 16.75H16.4062C16.6704 16.7517 16.9303 16.6831 17.1593 16.5513C17.3883 16.4196 17.5781 16.2293 17.7094 16C17.8395 15.7694 17.9071 15.5088 17.9055 15.2441C17.9038 14.9793 17.833 14.7196 17.7 14.4906ZM8.99999 19C8.40401 18.9975 7.83315 18.7597 7.41172 18.3383C6.9903 17.9168 6.75245 17.346 6.74999 16.75H11.25C11.2475 17.346 11.0097 17.9168 10.5883 18.3383C10.1668 18.7597 9.59596 18.9975 8.99999 19ZM1.59374 15.25C2.24061 14.125 3.01874 12.0531 3.01874 8.5V7.75C3.01627 6.96295 3.16916 6.18316 3.46864 5.45532C3.76812 4.72747 4.2083 4.06589 4.76396 3.50849C5.31962 2.95109 5.97982 2.50884 6.70672 2.20708C7.43363 1.90533 8.21294 1.75 8.99999 1.75H9.04686C12.3187 1.76875 14.9812 4.50625 14.9812 7.83438V8.5C14.9812 12.0531 15.7594 14.125 16.4062 15.25H1.59374Z" fill="white"/>
</svg>
