<svg width="20" height="20" viewBox="0 0 20 20" fill="none" xmlns="http://www.w3.org/2000/svg">
<path d="M4.99995 17.5C4.8568 17.4996 4.71617 17.4623 4.59162 17.3917C4.4629 17.3193 4.35571 17.2141 4.28104 17.0867C4.20636 16.9593 4.16688 16.8143 4.16662 16.6667V4.44167C4.15536 3.94193 4.34148 3.45789 4.68465 3.09444C5.02782 2.73099 5.50039 2.51741 5.99995 2.5H14C14.4995 2.51741 14.9721 2.73099 15.3153 3.09444C15.6584 3.45789 15.8446 3.94193 15.8333 4.44167V16.6667C15.8324 16.8121 15.7935 16.9548 15.7204 17.0805C15.6473 17.2062 15.5426 17.3106 15.4166 17.3833C15.2899 17.4565 15.1462 17.495 15 17.495C14.8537 17.495 14.71 17.4565 14.5833 17.3833L9.85829 14.7083L5.41662 17.375C5.29125 17.4528 5.14746 17.496 4.99995 17.5Z" fill="currentColor"/>
</svg>
