<svg width="24" height="24" viewBox="0 0 24 24" fill="none" xmlns="http://www.w3.org/2000/svg">
<path d="M5.87976 20.2175L5.87747 20.2162C5.83885 20.1945 5.8067 20.1629 5.78429 20.1247C5.76196 20.0866 5.75012 20.0433 5.74997 19.9991V5.33V5.32155L5.74978 5.3131C5.74071 4.91068 5.89058 4.5209 6.16693 4.22822C6.44058 3.9384 6.81641 3.76693 7.21433 3.75H16.7856C17.1835 3.76693 17.5594 3.9384 17.833 4.22822C18.1094 4.5209 18.2592 4.91068 18.2502 5.3131L18.25 5.32155V5.33V19.997C18.2495 20.0401 18.2378 20.0823 18.2161 20.1196C18.1942 20.1573 18.1628 20.1887 18.125 20.2105L18.125 20.2105C18.087 20.2324 18.0439 20.244 18 20.244C17.9561 20.244 17.913 20.2324 17.875 20.2105L17.875 20.2105L17.8695 20.2073L12.1995 16.9973L11.8189 16.7819L11.4439 17.007L6.11392 20.207L6.11388 20.2069L6.10443 20.2128C6.07006 20.2341 6.03108 20.2468 5.99085 20.2497C5.95186 20.2478 5.91381 20.2368 5.87976 20.2175Z" stroke="white" stroke-width="1.5"/>
</svg>
