<svg width="100%" height="100%" viewBox="0 0 24 24" fill="none" xmlns="http://www.w3.org/2000/svg">
<g clip-path="url(#clip0_224_143898)">
<path d="M2.63067 20.9041C4.57153 20.8702 6.4425 20.1523 7.94788 18.8634C9.24357 19.3722 10.6199 19.6379 12.007 19.6322C17.3511 19.6322 21.6844 15.9296 21.6844 11.3621C21.6844 6.79461 17.3457 3.09766 12.0016 3.09766C6.65755 3.09766 2.32422 6.80027 2.32422 11.3621M2.63067 20.9041V20.6001V20.5815V20.5767V20.5573V20.1541C2.81812 20.1541 2.96358 20.2614 3.03283 20.3903C3.03649 20.3971 3.03995 20.404 3.04318 20.4109C3.04568 20.417 3.04804 20.423 3.05027 20.4291C3.10234 20.5718 3.07893 20.7323 2.97769 20.8567C2.97013 20.866 2.96213 20.8751 2.95369 20.884L2.96621 20.8708L2.97808 20.857C3.19532 20.6053 3.40059 20.3437 3.59345 20.0732M2.63067 20.9041L2.6254 20.6023L2.62508 20.5842L2.62485 20.5712L2.62452 20.552L2.61757 20.1542C2.94547 20.1485 3.27134 20.1213 3.59345 20.0732M2.63067 20.9041C2.51239 20.9041 2.40486 20.8306 2.35648 20.7119C2.30271 20.5989 2.32422 20.4575 2.41024 20.3671C3.35648 19.2704 4.06078 17.9703 4.48013 16.5571C3.13067 15.2004 2.3511 13.3293 2.32422 11.3621M3.59345 20.0732C5.00284 19.8627 6.34017 19.2526 7.4601 18.2937L7.80247 18.0006L8.22199 18.1653C9.4323 18.6405 10.7148 18.8875 12.004 18.8822L12.007 18.8822C17.0518 18.8822 20.9344 15.4091 20.9344 11.3621C20.9344 7.31618 17.0477 3.84766 12.0016 3.84766C6.95862 3.84766 3.07749 7.31811 3.07422 11.357M3.59345 20.0732C4.30395 19.0767 4.8462 17.9598 5.19915 16.7704L5.32576 16.3437L5.01188 16.0282C3.80424 14.8141 3.09979 13.1325 3.07422 11.357M3.07422 11.357C3.0742 11.3553 3.07417 11.3536 3.07415 11.3519L2.32422 11.3621M3.07422 11.357C3.07422 11.3587 3.07422 11.3604 3.07422 11.3621H2.32422" stroke="currentColor" stroke-width="1.5"/>
</g>
<defs>
<clipPath id="clip0_224_143898">
<rect width="19.3548" height="17.8065" fill="white" transform="translate(2.32422 3.09766)"/>
</clipPath>
</defs>
</svg>
