<svg width="40" height="24" viewBox="0 0 40 24" fill="none" xmlns="http://www.w3.org/2000/svg">
<g clip-path="url(#clip0_644_142005)">
<path d="M10.6908 5.64392L19.5297 15.0594V21.6462L6.93951 17.7999L10.6908 5.64392Z" fill="url(#paint0_linear_644_142005)"/>
<path d="M28.3686 5.64392L19.5297 15.0594V21.6462L32.1198 17.7999L28.3686 5.64392Z" fill="url(#paint1_linear_644_142005)"/>
<path d="M30.5936 21.6462H8.47258V24.0001H30.5936V21.6462Z" fill="url(#paint2_linear_644_142005)"/>
<path d="M26.2386 14.2386L19.5297 2.59131L12.8276 14.2386L2.5913 7.17695L8.47258 21.6461H19.5297H30.5936L36.4748 7.17695L26.2386 14.2386Z" fill="url(#paint3_linear_644_142005)"/>
<path d="M22.121 2.59137C22.1223 2.07857 21.9715 1.5769 21.6876 1.14988C21.4036 0.722848 20.9994 0.38966 20.526 0.19249C20.0527 -0.00467923 19.5314 -0.0569643 19.0283 0.042254C18.5252 0.141472 18.0628 0.387733 17.6998 0.74986C17.3367 1.11199 17.0892 1.5737 16.9887 2.07655C16.8881 2.57939 16.9391 3.10076 17.135 3.57465C17.3309 4.04855 17.663 4.45365 18.0893 4.73869C18.5156 5.02372 19.0169 5.17587 19.5297 5.17588C20.2158 5.17588 20.8738 4.9038 21.3596 4.4193C21.8454 3.93481 22.1192 3.27744 22.121 2.59137Z" fill="url(#paint4_linear_644_142005)"/>
<path d="M39.0594 7.17698C39.0594 6.66418 38.9072 6.16291 38.6222 5.73663C38.3371 5.31035 37.932 4.97822 37.4581 4.78229C36.9842 4.58637 36.4629 4.53545 35.96 4.63598C35.4572 4.73652 34.9955 4.98399 34.6333 5.34707C34.2712 5.71015 34.025 6.17251 33.9257 6.67561C33.8265 7.17872 33.8788 7.69996 34.076 8.17333C34.2731 8.64671 34.6063 9.05095 35.0334 9.33486C35.4604 9.61878 35.962 9.76962 36.4748 9.76827C36.8148 9.76828 37.1515 9.7012 37.4655 9.57089C37.7795 9.44059 38.0647 9.2496 38.3048 9.00889C38.5449 8.76818 38.7351 8.48246 38.8646 8.16811C38.9941 7.85376 39.0602 7.51695 39.0594 7.17698Z" fill="url(#paint5_linear_644_142005)"/>
<path d="M5.17581 7.17698C5.1758 6.66418 5.02365 6.16291 4.73862 5.73663C4.45358 5.31035 4.04848 4.97822 3.57458 4.78229C3.10069 4.58637 2.57932 4.53545 2.07647 4.63598C1.57363 4.73652 1.11192 4.98399 0.749789 5.34707C0.387662 5.71015 0.141402 6.17251 0.0421834 6.67561C-0.0570349 7.17872 -0.0047498 7.69996 0.19242 8.17333C0.389589 8.64671 0.722777 9.05095 1.14981 9.33486C1.57683 9.61878 2.0785 9.76962 2.59129 9.76827C3.27737 9.76648 3.93474 9.49267 4.41923 9.00691C4.90373 8.52114 5.17581 7.86306 5.17581 7.17698Z" fill="url(#paint6_linear_644_142005)"/>
<path d="M19.5297 12.1154L17.3318 15.6224L19.5297 19.1227L21.7275 15.6224L19.5297 12.1154Z" fill="#111111"/>
</g>
<defs>
<linearGradient id="paint0_linear_644_142005" x1="13.2346" y1="-1.97394" x2="13.2346" y2="16.9588" gradientUnits="userSpaceOnUse">
<stop offset="0.01" stop-color="#FED33C"/>
<stop offset="0.16" stop-color="#FEC831"/>
<stop offset="0.71" stop-color="#FFA50E"/>
<stop offset="1" stop-color="#FF9800"/>
</linearGradient>
<linearGradient id="paint1_linear_644_142005" x1="25.8248" y1="-1.97394" x2="25.8248" y2="16.9588" gradientUnits="userSpaceOnUse">
<stop offset="0.01" stop-color="#FED33C"/>
<stop offset="0.16" stop-color="#FEC831"/>
<stop offset="0.71" stop-color="#FFA50E"/>
<stop offset="1" stop-color="#FF9800"/>
</linearGradient>
<linearGradient id="paint2_linear_644_142005" x1="19.5297" y1="21.0289" x2="19.5297" y2="24.3257" gradientUnits="userSpaceOnUse">
<stop offset="0.01" stop-color="#FED33C"/>
<stop offset="0.16" stop-color="#FEC831"/>
<stop offset="0.71" stop-color="#FFA50E"/>
<stop offset="1" stop-color="#FF9800"/>
</linearGradient>
<linearGradient id="paint3_linear_644_142005" x1="19.5297" y1="3.81234" x2="19.5297" y2="24.346" gradientUnits="userSpaceOnUse">
<stop offset="0.01" stop-color="#FED33C"/>
<stop offset="0.16" stop-color="#FEC831"/>
<stop offset="0.71" stop-color="#FFA50E"/>
<stop offset="1" stop-color="#FF9800"/>
</linearGradient>
<linearGradient id="paint4_linear_644_142005" x1="19.5297" y1="-0.264485" x2="19.5297" y2="4.72817" gradientUnits="userSpaceOnUse">
<stop offset="0.01" stop-color="#FED33C"/>
<stop offset="0.16" stop-color="#FEC831"/>
<stop offset="0.71" stop-color="#FFA50E"/>
<stop offset="1" stop-color="#FF9800"/>
</linearGradient>
<linearGradient id="paint5_linear_644_142005" x1="36.4748" y1="4.59925" x2="36.4748" y2="10.1753" gradientUnits="userSpaceOnUse">
<stop offset="0.01" stop-color="#FED33C"/>
<stop offset="0.16" stop-color="#FEC831"/>
<stop offset="0.71" stop-color="#FFA50E"/>
<stop offset="1" stop-color="#FF9800"/>
</linearGradient>
<linearGradient id="paint6_linear_644_142005" x1="2.59129" y1="4.3347" x2="2.59129" y2="9.46302" gradientUnits="userSpaceOnUse">
<stop offset="0.01" stop-color="#FED33C"/>
<stop offset="0.16" stop-color="#FEC831"/>
<stop offset="0.71" stop-color="#FFA50E"/>
<stop offset="1" stop-color="#FF9800"/>
</linearGradient>
<clipPath id="clip0_644_142005">
<rect width="39.0594" height="24" fill="white"/>
</clipPath>
</defs>
</svg>
