<svg width="56" height="56" viewBox="0 0 56 56" fill="none" xmlns="http://www.w3.org/2000/svg">
<path d="M54.5 28C54.5 42.6355 42.6355 54.5 28 54.5C13.3645 54.5 1.5 42.6355 1.5 28C1.5 13.3645 13.3645 1.5 28 1.5C42.6355 1.5 54.5 13.3645 54.5 28Z" stroke="#16181C" stroke-width="3" stroke-miterlimit="10"/>
<path d="M16.3837 15.7109H39.6161V32.8235L31.0594 41.044H16.3837V15.7109Z" stroke="#16181C" stroke-width="3" stroke-miterlimit="10"/>
<mask id="path-3-inside-1_232_138549" fill="white">
<path d="M41.1161 33.4632L32.0795 31.1641L31.6632 42.5447"/>
</mask>
<path d="M32.0795 31.1641L32.8192 28.2567L29.2174 27.3403L29.0815 31.0544L32.0795 31.1641ZM41.8558 30.5559L32.8192 28.2567L31.3398 34.0714L40.3764 36.3706L41.8558 30.5559ZM29.0815 31.0544L28.6652 42.435L34.6612 42.6543L35.0775 31.2737L29.0815 31.0544Z" fill="#16181C" mask="url(#path-3-inside-1_232_138549)"/>
</svg>
