<svg width="24" height="24" viewBox="0 0 24 24" fill="none" xmlns="http://www.w3.org/2000/svg">
<path d="M7.25 12C7.25 12.6904 6.69036 13.25 6 13.25C5.30964 13.25 4.75 12.6904 4.75 12C4.75 11.3096 5.30964 10.75 6 10.75C6.69036 10.75 7.25 11.3096 7.25 12Z" fill="#8D8D8D" stroke="#8D8D8D" stroke-width="0.5"/>
<path d="M13.25 12C13.25 12.6904 12.6904 13.25 12 13.25C11.3096 13.25 10.75 12.6904 10.75 12C10.75 11.3096 11.3096 10.75 12 10.75C12.6904 10.75 13.25 11.3096 13.25 12Z" fill="#8D8D8D" stroke="#8D8D8D" stroke-width="0.5"/>
<path d="M19.25 12C19.25 12.6904 18.6904 13.25 18 13.25C17.3096 13.25 16.75 12.6904 16.75 12C16.75 11.3096 17.3096 10.75 18 10.75C18.6904 10.75 19.25 11.3096 19.25 12Z" fill="#8D8D8D" stroke="#8D8D8D" stroke-width="0.5"/>
</svg>
