<svg width="24" height="24" viewBox="0 0 24 24" fill="none" xmlns="http://www.w3.org/2000/svg">
<g clip-path="url(#clip0_193_149441)">
<path d="M15 11V11.01" stroke="currentColor" stroke-width="2" stroke-linecap="round" stroke-linejoin="round"/>
<path d="M5.24903 7.875C4.49903 8.25 3.82727 8.72438 3.39376 9.85969C2.96026 10.995 2.88172 12.2352 3.16854 13.4161C3.45536 14.597 4.09402 15.663 5 16.473L4.999 16.5V18.5C4.999 18.8978 5.15703 19.2794 5.43834 19.5607C5.71964 19.842 6.10117 20 6.499 20C6.89682 20 7.27835 19.842 7.55966 19.5607C7.84096 19.2794 7.999 18.8978 7.999 18.5V17.917C8.32945 17.9724 8.66394 18.0001 8.999 18H12.999C13.3341 18.0001 13.6685 17.9724 13.999 17.917V18.5C13.999 18.8978 14.157 19.2794 14.4383 19.5607C14.7196 19.842 15.1012 20 15.499 20C15.8968 20 16.2784 19.842 16.5597 19.5607C16.841 19.2794 16.999 18.8978 16.999 18.5V16.473C17.7504 15.8008 18.3206 14.9504 18.657 14H19.999C20.2642 14 20.5186 13.8946 20.7061 13.7071C20.8936 13.5196 20.999 13.2652 20.999 13V11C20.999 10.7348 20.8936 10.4804 20.7061 10.2929C20.5186 10.1054 20.2642 10 19.999 10H18.658C18.1799 8.65245 17.2376 7.51912 16 6.803V3H15.999L11.999 5.625" stroke="currentColor" stroke-width="1.5" stroke-linecap="round" stroke-linejoin="round"/>
<line x1="6.75" y1="8.25" x2="10.5" y2="8.25" stroke="currentColor" stroke-width="1.5" stroke-linecap="round"/>
<circle cx="8.625" cy="6.375" r="1.875" stroke="currentColor" stroke-width="1.5"/>
</g>
<defs>
<clipPath id="clip0_193_149441">
<rect width="24" height="24" fill="white"/>
</clipPath>
</defs>
</svg>
