<svg width="18" height="10" viewBox="0 0 18 10" fill="none" xmlns="http://www.w3.org/2000/svg">
<path d="M16.9234 4.02678C17.5078 4.54279 17.5078 5.4629 16.9234 5.97891C15.4314 7.29069 12.441 9.46663 9.00301 9.46663C5.56502 9.46663 2.57466 7.29069 1.08258 5.97891C0.498188 5.4629 0.498188 4.54279 1.08258 4.02678C2.57466 2.715 5.56502 0.539062 9.00301 0.539062C12.441 0.539062 15.4314 2.715 16.9234 4.02678Z" stroke="#D6F76B" stroke-miterlimit="10"/>
<path d="M9.00288 7.76943C10.5308 7.76943 11.7694 6.53081 11.7694 5.00288C11.7694 3.47496 10.5308 2.23633 9.00288 2.23633C7.47496 2.23633 6.23633 3.47496 6.23633 5.00288C6.23633 6.53081 7.47496 7.76943 9.00288 7.76943Z" stroke="#D6F76B" stroke-miterlimit="10"/>
</svg>
