<svg width="100%" height="100%" viewBox="0 0 21 20" fill="none" xmlns="http://www.w3.org/2000/svg">
<path d="M10.5 17.7782C15.0104 17.7782 18.6667 14.296 18.6667 10.0004C18.6667 5.70489 15.0104 2.22266 10.5 2.22266C5.98972 2.22266 2.33337 5.70489 2.33337 10.0004C2.33337 14.296 5.98972 17.7782 10.5 17.7782Z" stroke="currentColor" stroke-width="1.5" stroke-linecap="round" stroke-linejoin="round"/>
<path d="M10.5 13.332V13.3426" stroke="currentColor" stroke-width="1.5" stroke-linecap="round" stroke-linejoin="round"/>
<path d="M10.5 10.0013C10.7937 10.0014 11.0827 9.93121 11.3403 9.79706C11.598 9.66291 11.8161 9.46917 11.9745 9.23368C12.1329 8.99819 12.2265 8.72852 12.2468 8.44951C12.267 8.17051 12.2132 7.89114 12.0903 7.63714C11.9674 7.38314 11.7794 7.16267 11.5435 6.99605C11.3077 6.82943 11.0316 6.72201 10.7407 6.68369C10.4498 6.64537 10.1535 6.67738 9.87902 6.77676C9.60453 6.87615 9.36072 7.03972 9.17004 7.25241" stroke="currentColor" stroke-width="1.5" stroke-linecap="round" stroke-linejoin="round"/>
</svg>
