<svg width="24" height="24" viewBox="0 0 24 24" fill="none" xmlns="http://www.w3.org/2000/svg">
<g clip-path="url(#clip0_250_142718)">
<path d="M7.08235 2.40363C8.94753 2.40363 10.8127 2.40363 12.6779 2.40864C12.8705 2.40864 12.9521 2.35656 13.0152 2.17429C13.2287 1.54331 13.6387 0.994243 14.1871 0.604739C14.7355 0.215234 15.3947 0.00500753 16.0714 0.0037895C16.7481 0.00257148 17.4081 0.210424 17.958 0.597951C18.5079 0.985479 18.9199 1.53307 19.1357 2.16327C19.2019 2.35656 19.2886 2.41065 19.4904 2.40864C20.4912 2.39763 21.4911 2.40263 22.492 2.40363C23.0322 2.40363 23.4021 2.72912 23.4093 3.20484C23.4164 3.68055 23.0403 4.00604 22.5042 4.00604C21.485 4.00604 20.4658 4.01105 19.4516 4.00604C19.2753 4.00604 19.208 4.05912 19.152 4.22036C18.9406 4.85652 18.5299 5.41071 17.9786 5.80366C17.4273 6.19662 16.7637 6.40823 16.0826 6.40823C15.4015 6.40823 14.7379 6.19662 14.1866 5.80366C13.6353 5.41071 13.2246 4.85652 13.0132 4.22036C12.951 4.03608 12.8624 4.00404 12.6891 4.00504C8.99339 4.00904 5.29701 4.00904 1.59995 4.00504C1.4816 4.01034 1.36301 4.00295 1.24628 3.983C1.05298 3.93645 0.883677 3.82204 0.77028 3.66132C0.656883 3.50061 0.607223 3.30469 0.630659 3.11048C0.654096 2.91628 0.749009 2.73721 0.897513 2.607C1.04602 2.4768 1.23786 2.40447 1.43688 2.40363C2.99629 2.40363 4.55672 2.40363 6.11613 2.40363H7.08235ZM16.0749 4.80724C16.3973 4.80842 16.7127 4.71572 16.9814 4.54085C17.2502 4.36599 17.4601 4.11679 17.5848 3.82474C17.7095 3.53269 17.7433 3.21088 17.682 2.89995C17.6207 2.58903 17.4669 2.30294 17.2402 2.0778C17.0135 1.85267 16.724 1.6986 16.4083 1.63504C16.0925 1.57148 15.7647 1.6013 15.4662 1.72071C15.1676 1.84013 14.9118 2.04379 14.731 2.30597C14.5502 2.56816 14.4525 2.87712 14.4503 3.19382C14.4495 3.61828 14.6201 4.02573 14.9247 4.32671C15.2293 4.6277 15.643 4.79764 16.0749 4.79923V4.80724Z" fill="#D6F76B"/>
<path d="M16.5061 12.8003C14.5053 12.8003 12.5046 12.8003 10.5039 12.8003C10.3235 12.8003 10.244 12.8474 10.1838 13.0237C9.97098 13.6594 9.55893 14.2127 9.00665 14.6044C8.45436 14.996 7.79013 15.206 7.10903 15.2042C6.42793 15.2025 5.76485 14.989 5.21469 14.5945C4.66452 14.1999 4.25547 13.6445 4.04607 13.0076C3.98797 12.8384 3.90848 12.7993 3.7403 12.8013C2.99423 12.8093 2.24816 12.8013 1.49802 12.8013C0.964962 12.8013 0.593965 12.4628 0.600081 11.9901C0.606196 11.5174 0.970058 11.2019 1.49292 11.2009C2.24714 11.2009 3.00239 11.2009 3.75661 11.2009C3.92071 11.2009 3.98492 11.1508 4.03792 11.0006C4.24416 10.3599 4.65212 9.80006 5.203 9.40181C5.75387 9.00357 6.41921 8.78748 7.10311 8.7847C7.78701 8.78191 8.45414 8.99257 9.00836 9.38632C9.56257 9.78006 9.97524 10.3366 10.1869 10.9756C10.2521 11.1659 10.3418 11.2039 10.5283 11.2039C14.4883 11.1979 18.4477 11.1979 22.4063 11.2039C22.5246 11.1987 22.6431 11.205 22.76 11.223C22.9519 11.2688 23.1203 11.3816 23.234 11.5403C23.3476 11.699 23.3988 11.8928 23.378 12.0858C23.3572 12.2788 23.2659 12.4578 23.1209 12.5896C22.9759 12.7213 22.7872 12.7969 22.5898 12.8023C21.7337 12.8093 20.8765 12.8023 20.0203 12.8023L16.5061 12.8003ZM8.74468 11.9891C8.74327 11.6725 8.64644 11.3634 8.46639 11.1008C8.28635 10.8382 8.03117 10.6339 7.73306 10.5137C7.43496 10.3935 7.1073 10.3627 6.79143 10.4254C6.47557 10.488 6.18566 10.6411 5.95831 10.8655C5.73096 11.0899 5.57635 11.3754 5.51401 11.6861C5.45166 11.9967 5.48437 12.3185 5.608 12.6109C5.73164 12.9033 5.94066 13.1532 6.20868 13.3289C6.4767 13.5047 6.7917 13.5985 7.11393 13.5985C7.32894 13.5989 7.54191 13.5575 7.74058 13.4767C7.93926 13.3959 8.11971 13.2774 8.27156 13.1278C8.4234 12.9782 8.54365 12.8006 8.62537 12.6052C8.7071 12.4097 8.74868 12.2004 8.74774 11.9891H8.74468Z" fill="#D6F76B"/>
<path d="M7.07931 19.999C8.95264 19.999 10.826 19.999 12.7003 19.999C12.8675 19.999 12.947 19.962 13.0061 19.7917C13.2166 19.153 13.6278 18.5963 14.1806 18.2017C14.7334 17.8071 15.3994 17.5949 16.0827 17.5957C16.7659 17.5965 17.4314 17.8102 17.9832 18.206C18.5351 18.6019 18.945 19.1595 19.154 19.7987C19.1648 19.8621 19.2006 19.9187 19.2537 19.9563C19.3068 19.9938 19.3728 20.0092 19.4374 19.999C20.4566 19.992 21.4758 19.999 22.4899 19.999C23.0312 19.999 23.4072 20.3215 23.4072 20.7912C23.4072 21.2609 23.0373 21.5984 22.4798 21.5994C21.4707 21.5994 20.4617 21.6054 19.4537 21.5944C19.259 21.5944 19.1989 21.6665 19.1418 21.8298C18.9271 22.4626 18.5149 23.0129 17.9637 23.4022C17.4125 23.7916 16.7503 24.0003 16.0715 23.9987C15.3926 23.997 14.7315 23.785 14.1823 23.393C13.6331 23.0009 13.2236 22.4486 13.0122 21.8148C12.951 21.6345 12.8664 21.5954 12.6901 21.5954C8.99442 21.6008 5.29839 21.6008 1.60201 21.5954C1.48335 21.601 1.36443 21.594 1.24732 21.5744C1.05604 21.5264 0.888978 21.4118 0.777144 21.252C0.665311 21.0921 0.6163 20.8978 0.639207 20.7051C0.662115 20.5125 0.755386 20.3345 0.901708 20.2043C1.04803 20.0741 1.23747 20.0004 1.43485 19.997C2.8424 19.997 4.24995 19.997 5.65749 19.997L7.07931 19.999ZM17.7047 20.7932C17.7047 20.4763 17.6091 20.1665 17.4299 19.903C17.2507 19.6395 16.996 19.4341 16.698 19.3128C16.4 19.1915 16.0721 19.1598 15.7558 19.2216C15.4395 19.2834 15.1489 19.4361 14.9208 19.6602C14.6928 19.8843 14.5374 20.1698 14.4745 20.4806C14.4116 20.7914 14.4439 21.1136 14.5673 21.4064C14.6907 21.6992 14.8998 21.9495 15.1679 22.1256C15.4361 22.3016 15.7514 22.3956 16.0739 22.3956C16.5064 22.3956 16.9212 22.2268 17.2271 21.9263C17.5329 21.6258 17.7047 21.2182 17.7047 20.7932Z" fill="#D6F76B"/>
</g>
<defs>
<clipPath id="clip0_250_142718">
<rect width="24" height="24" fill="white"/>
</clipPath>
</defs>
</svg>
