<svg width="100%" height="100%" viewBox="0 0 14 15" fill="none" xmlns="http://www.w3.org/2000/svg">
<g id="ci:heart-fill">
<path id="Vector" d="M1.91663 5.39956V5.39944C1.91657 5.08049 1.98009 4.76473 2.10347 4.47061C2.22685 4.1765 2.40762 3.90992 2.63521 3.68647C2.8628 3.46302 3.13264 3.28717 3.42898 3.16921C3.72531 3.05124 4.04218 2.99353 4.36107 2.99944L4.37001 2.9996L4.37894 2.99955C4.76789 2.99749 5.15284 3.07811 5.50827 3.23608C5.8637 3.39405 6.18149 3.62576 6.4406 3.91584L6.99996 4.5421L7.55932 3.91584C7.81842 3.62576 8.13622 3.39405 8.49165 3.23608C8.84708 3.07811 9.23203 2.99749 9.62098 2.99955L9.62991 2.9996L9.63885 2.99944C9.95774 2.99353 10.2746 3.05124 10.5709 3.16921C10.8673 3.28717 11.1371 3.46302 11.3647 3.68647C11.5923 3.90992 11.7731 4.1765 11.8964 4.47061C12.0198 4.76473 12.0833 5.08049 12.0833 5.39944V5.39956C12.0833 6.65682 11.3315 7.84406 10.1742 9.02013C9.60517 9.59832 8.96642 10.1459 8.32544 10.6743C8.14615 10.8221 7.96489 10.9698 7.78483 11.1166C7.51788 11.3341 7.25354 11.5496 7.00213 11.76C6.73461 11.5344 6.45254 11.3038 6.16801 11.0712C6.00434 10.9374 5.83985 10.8029 5.67684 10.6683C5.03542 10.1388 4.39638 9.59181 3.8269 9.01447C2.66873 7.84033 1.91663 6.65724 1.91663 5.39956Z" stroke="currentColor" stroke-width="1.5"/>
</g>
</svg>
