<svg width="22" height="22" viewBox="0 0 22 22" fill="none" xmlns="http://www.w3.org/2000/svg">
<path d="M1 5C1 3.93913 1.42143 2.92172 2.17157 2.17157C2.92172 1.42143 3.93913 1 5 1H17C18.0609 1 19.0783 1.42143 19.8284 2.17157C20.5786 2.92172 21 3.93913 21 5V17C21 18.0609 20.5786 19.0783 19.8284 19.8284C19.0783 20.5786 18.0609 21 17 21H5C3.93913 21 2.92172 20.5786 2.17157 19.8284C1.42143 19.0783 1 18.0609 1 17V5Z" stroke="white" stroke-width="1.5" stroke-linecap="round" stroke-linejoin="round"/>
<path d="M7.5 10C8.88071 10 10 8.88071 10 7.5C10 6.11929 8.88071 5 7.5 5C6.11929 5 5 6.11929 5 7.5C5 8.88071 6.11929 10 7.5 10Z" stroke="white" stroke-width="1.5" stroke-linecap="round" stroke-linejoin="round"/>
<path d="M13.526 11.6213L5 21.0003H17.133C18.1586 21.0003 19.1422 20.5929 19.8674 19.8677C20.5926 19.1425 21 18.1589 21 17.1333V17.0003C21 16.5343 20.825 16.3553 20.51 16.0103L16.48 11.6153C16.2922 11.4104 16.0637 11.2469 15.8092 11.1353C15.5546 11.0236 15.2796 10.9662 15.0017 10.9668C14.7237 10.9674 14.449 11.0259 14.1949 11.1385C13.9408 11.2512 13.713 11.4157 13.526 11.6213V11.6213Z" stroke="white" stroke-width="1.5" stroke-linecap="round" stroke-linejoin="round"/>
</svg>
