<svg width="24" height="24" viewBox="0 0 24 24" fill="none" xmlns="http://www.w3.org/2000/svg">
<path d="M2.75 8.40093L2.75 8.4008C2.74989 7.78284 2.87296 7.17105 3.11201 6.6012C3.35106 6.03135 3.7013 5.51486 4.14226 5.08193C4.58321 4.64899 5.10604 4.30829 5.68018 4.07973C6.25432 3.85118 6.86826 3.73935 7.48611 3.7508L7.49505 3.75096L7.50398 3.75092C8.24667 3.74697 8.9817 3.90092 9.66039 4.20256C10.3391 4.50419 10.9459 4.94663 11.4406 5.50054L12 6.1268L12.5594 5.50054C13.0541 4.94663 13.6609 4.50419 14.3396 4.20256C15.0183 3.90092 15.7533 3.74697 16.496 3.75092L16.505 3.75096L16.5139 3.7508C17.1317 3.73935 17.7457 3.85118 18.3198 4.07973C18.894 4.30829 19.4168 4.64899 19.8577 5.08193C20.2987 5.51486 20.6489 6.03135 20.888 6.6012C21.127 7.17105 21.2501 7.78284 21.25 8.4008V8.40093C21.25 10.774 19.8337 12.9404 17.8233 14.9834C16.8278 15.995 15.7154 16.9479 14.613 17.8567C14.2997 18.1149 13.9855 18.3711 13.6749 18.6242C13.0945 19.0972 12.5268 19.5598 12.0024 20.0065C11.4518 19.5336 10.8538 19.0447 10.2429 18.5452C9.9605 18.3143 9.67529 18.0811 9.39074 17.8462C8.28813 16.9359 7.1753 15.9841 6.17907 14.9741C4.16742 12.9347 2.75 10.7753 2.75 8.40093Z" stroke="white" stroke-width="1.5"/>
</svg>
