<svg width="100%" height="100%" viewBox="0 0 20 20" fill="none" xmlns="http://www.w3.org/2000/svg">
<path fill-rule="evenodd" clip-rule="evenodd" d="M10.9167 1.68115C9.51414 1.52163 8.47293 2.70722 8.47292 3.96255V4.48571C8.47292 5.87389 7.79573 6.70446 7.09334 7.21676C6.74964 7.46743 6.40191 7.63842 6.13151 7.74822C5.81417 7.20351 5.22306 6.8373 4.54625 6.8373H3.49913C2.48709 6.8373 1.66666 7.65613 1.66666 8.66621V16.5044C1.66666 17.5145 2.48708 18.3334 3.49913 18.3334H4.54625C5.35745 18.3334 6.04555 17.8073 6.2867 17.0782C6.83591 17.1565 7.4043 17.3172 8.09322 17.5119L8.09341 17.512C8.25213 17.5568 8.41723 17.6036 8.58997 17.6514C9.79831 17.9864 11.2505 18.3331 13.185 18.3331C14.9711 18.3331 16.2945 18.174 17.0819 17.1426C17.4516 16.6584 17.6442 16.0536 17.7822 15.3951C17.905 14.8089 17.9998 14.0953 18.1094 13.2699L18.1519 12.9501C18.4128 10.9974 18.4294 9.48251 17.9544 8.43968C17.6989 7.87887 17.3031 7.45457 16.7644 7.18543C16.2468 6.92685 15.649 6.83717 15.0175 6.83717H13.5281L13.5439 6.71976V6.71975C13.6168 6.17816 13.7086 5.49762 13.7086 5.00826C13.7086 4.04516 13.5501 3.21214 13.0221 2.60515C12.4867 1.98958 11.7161 1.77208 10.9167 1.68115ZM6.37871 15.5102C7.11727 15.6027 7.83479 15.8072 8.54845 16.0105H8.54846C8.70255 16.0544 8.85645 16.0983 9.01036 16.141C10.158 16.4592 11.4545 16.7655 13.185 16.7655C15.0637 16.7655 15.5728 16.5329 15.8325 16.1926C15.9864 15.991 16.121 15.6649 16.2448 15.0742C16.3548 14.5492 16.4411 13.8994 16.5532 13.0572L16.595 12.7428C16.8578 10.7764 16.7934 9.67858 16.5246 9.08845C16.408 8.83277 16.2581 8.68554 16.0613 8.58727C15.8434 8.47843 15.5162 8.40481 15.0175 8.40481H13.1846C12.4671 8.40481 11.829 7.80182 11.9226 7.00865C11.9462 6.80868 11.974 6.60213 12.0016 6.39681C12.0702 5.88633 12.1378 5.38346 12.1378 5.00826C12.1378 4.16321 11.9867 3.80603 11.8361 3.63288C11.6929 3.46828 11.4157 3.3157 10.7388 3.23871C10.4177 3.20218 10.0436 3.48642 10.0436 3.96256V4.48571C10.0436 6.49409 9.01925 7.7537 8.02007 8.48245C7.52786 8.84145 7.04007 9.0749 6.67694 9.21894C6.56596 9.26297 6.4655 9.29908 6.37871 9.32819V15.5102ZM4.54625 8.40493C4.69082 8.40493 4.80803 8.5219 4.80803 8.66621V16.243V16.5044C4.80803 16.6487 4.69082 16.7657 4.54625 16.7657H3.49913C3.35455 16.7657 3.23735 16.6487 3.23735 16.5044V8.66621C3.23735 8.5219 3.35455 8.40493 3.49913 8.40493H4.54625Z" fill="currentColor"/>
</svg>
