<svg width="24" height="24" viewBox="0 0 24 24" fill="none" xmlns="http://www.w3.org/2000/svg">
<path d="M13.622 10.1984C12.6664 9.24315 11.3705 8.70654 10.0193 8.70654C8.66815 8.70654 7.37228 9.24315 6.41666 10.1984L2.81283 13.801C1.85719 14.7567 1.32031 16.0528 1.32031 17.4043C1.32031 18.7558 1.85719 20.0519 2.81283 21.0075C3.76847 21.9632 5.0646 22.5001 6.41608 22.5001C7.76756 22.5001 9.06369 21.9632 10.0193 21.0075L11.8207 19.2062" stroke="#D6F76B" stroke-width="1.5" stroke-linecap="round" stroke-linejoin="round"/>
<path d="M10.0193 13.8012C10.975 14.7564 12.2708 15.293 13.622 15.293C14.9732 15.293 16.2691 14.7564 17.2247 13.8012L20.8285 10.1985C21.7842 9.24289 22.321 7.94676 22.321 6.59528C22.321 5.2438 21.7842 3.94767 20.8285 2.99203C19.8729 2.03639 18.5767 1.49951 17.2253 1.49951C15.8738 1.49951 14.5777 2.03639 13.622 2.99203L11.8207 4.79336" stroke="#D6F76B" stroke-width="1.5" stroke-linecap="round" stroke-linejoin="round"/>
</svg>
