<svg width="20" height="26" viewBox="0 0 20 26" fill="none" xmlns="http://www.w3.org/2000/svg">
<path d="M3.74179 4.10262C5.40555 2.43886 7.66127 1.50289 10.0142 1.5C12.3671 1.50289 14.6228 2.43886 16.2865 4.10262C17.9505 5.76659 18.8865 8.02265 18.8892 10.3759C18.8889 14.2319 16.8339 17.6764 14.6471 20.2392C12.5128 22.7406 10.3326 24.3085 10.0964 24.476C10.0716 24.491 10.0432 24.499 10.0142 24.499C9.98511 24.499 9.95667 24.491 9.93196 24.476C9.69574 24.3085 7.51556 22.7406 5.38118 20.2392C3.19436 17.6763 1.13931 14.2316 1.13916 10.3754C1.14194 8.02238 2.07792 5.76649 3.74179 4.10262ZM12.3753 6.84125C11.6764 6.37426 10.8547 6.125 10.0142 6.125C8.88699 6.125 7.80599 6.57277 7.00896 7.3698C6.21193 8.16683 5.76416 9.24783 5.76416 10.375C5.76416 11.2156 6.01342 12.0373 6.48041 12.7362C6.94741 13.4351 7.61117 13.9798 8.38776 14.3015C9.16434 14.6232 10.0189 14.7073 10.8433 14.5433C11.6677 14.3794 12.425 13.9746 13.0194 13.3802C13.6137 12.7858 14.0185 12.0286 14.1825 11.2041C14.3465 10.3797 14.2623 9.52518 13.9406 8.74859C13.619 7.97201 13.0742 7.30825 12.3753 6.84125Z" stroke="#D6F76B" stroke-width="1.5"/>
</svg>
