<svg width="20" height="20" viewBox="0 0 20 20" fill="none" xmlns="http://www.w3.org/2000/svg">
<path d="M5.68139 3.79625C6.82961 2.64803 8.38633 2.00207 10.0101 2C11.6339 2.00207 13.1907 2.64803 14.3389 3.79625C15.4871 4.94448 16.1331 6.5012 16.1351 8.125C16.1351 10.8048 14.705 13.2168 13.1564 15.0317C11.7696 16.657 10.3549 17.7247 10.0101 17.9754C9.66536 17.7247 8.25066 16.657 6.86387 15.0317C5.31533 13.2169 3.88528 10.8051 3.88513 8.12543C3.88708 6.50147 4.53306 4.94458 5.68139 3.79625ZM11.8157 5.42272C11.2813 5.06561 10.6529 4.875 10.0101 4.875C9.14818 4.875 8.32153 5.21741 7.71204 5.8269C7.10254 6.4364 6.76013 7.26305 6.76013 8.125C6.76013 8.76779 6.95074 9.39614 7.30786 9.9306C7.66497 10.4651 8.17255 10.8816 8.76641 11.1276C9.36027 11.3736 10.0137 11.438 10.6442 11.3126C11.2746 11.1872 11.8537 10.8776 12.3082 10.4231C12.7627 9.96858 13.0723 9.38948 13.1977 8.75904C13.3231 8.12861 13.2587 7.47514 13.0127 6.88128C12.7668 6.28742 12.3502 5.77984 11.8157 5.42272Z" stroke="#D6F76B" stroke-width="1.5"/>
</svg>
