<svg width="16" height="17" viewBox="0 0 16 17" fill="none" xmlns="http://www.w3.org/2000/svg">
<path d="M8.00015 9.14807C9.03569 9.14807 9.87515 8.26147 9.87515 7.16779C9.87515 6.0741 9.03569 5.1875 8.00015 5.1875C6.96462 5.1875 6.12515 6.0741 6.12515 7.16779C6.12515 8.26147 6.96462 9.14807 8.00015 9.14807Z" stroke="white" stroke-linecap="round" stroke-linejoin="round"/>
<path d="M11.5356 11.4073L8.88375 14.2081C8.64937 14.4554 8.33161 14.5943 8.00031 14.5943C7.66901 14.5943 7.35126 14.4554 7.11688 14.2081L4.46438 11.4073C3.76514 10.6688 3.28896 9.72783 3.09606 8.70347C2.90315 7.67911 3.00218 6.61734 3.38063 5.65242C3.75907 4.6875 4.39994 3.86277 5.22218 3.28253C6.04442 2.70228 7.0111 2.39258 8 2.39258C8.9889 2.39258 9.95558 2.70228 10.7778 3.28253C11.6001 3.86277 12.2409 4.6875 12.6194 5.65242C12.9978 6.61734 13.0968 7.67911 12.9039 8.70347C12.711 9.72783 12.2349 10.6688 11.5356 11.4073V11.4073Z" stroke="white" stroke-linecap="round" stroke-linejoin="round"/>
</svg>
