<svg width="29" height="28" viewBox="0 0 29 28" fill="none" xmlns="http://www.w3.org/2000/svg">
<path d="M3.15363 7.00016C3.15363 5.76249 3.64529 4.5755 4.52046 3.70033C5.39563 2.82516 6.58262 2.3335 7.82029 2.3335H21.8203C23.058 2.3335 24.245 2.82516 25.1201 3.70033C25.9953 4.5755 26.487 5.76249 26.487 7.00016V21.0002C26.487 22.2378 25.9953 23.4248 25.1201 24.3C24.245 25.1752 23.058 25.6668 21.8203 25.6668H7.82029C6.58262 25.6668 5.39563 25.1752 4.52046 24.3C3.64529 23.4248 3.15363 22.2378 3.15363 21.0002V7.00016Z" stroke="#D6F76B" stroke-width="1.5" stroke-linecap="round" stroke-linejoin="round"/>
<path d="M10.737 12.8333C12.3478 12.8333 13.6536 11.5275 13.6536 9.91667C13.6536 8.30584 12.3478 7 10.737 7C9.12615 7 7.82031 8.30584 7.82031 9.91667C7.82031 11.5275 9.12615 12.8333 10.737 12.8333Z" stroke="#D6F76B" stroke-width="1.5" stroke-linecap="round" stroke-linejoin="round"/>
<path d="M17.7673 14.7245L7.82031 25.6667H21.9755C23.172 25.6667 24.3195 25.1914 25.1656 24.3453C26.0117 23.4992 26.487 22.3517 26.487 21.1552V21C26.487 20.4564 26.2828 20.2475 25.9153 19.845L21.2136 14.7175C20.9945 14.4785 20.728 14.2878 20.431 14.1575C20.1341 14.0272 19.8132 13.9603 19.4889 13.9609C19.1647 13.9616 18.8441 14.0298 18.5477 14.1613C18.2512 14.2928 17.9855 14.4846 17.7673 14.7245V14.7245Z" stroke="#D6F76B" stroke-width="1.5" stroke-linecap="round" stroke-linejoin="round"/>
</svg>
