<svg width="100%" height="100%" viewBox="0 0 14 15" fill="none" xmlns="http://www.w3.org/2000/svg">
<g id="mention">
<path id="Vector" fill-rule="evenodd" clip-rule="evenodd" d="M4.62934 3.39585C4.09021 3.70706 3.61766 4.1214 3.23866 4.61522C2.85967 5.10904 2.58166 5.67267 2.4205 6.27394C2.09503 7.48823 2.26529 8.78208 2.89383 9.87084C3.52237 10.9596 4.5577 11.7541 5.77207 12.0796C6.98643 12.405 8.28035 12.2348 9.36918 11.6063C9.49431 11.5396 9.64045 11.5242 9.77673 11.5632C9.91302 11.6022 10.0288 11.6926 10.0998 11.8154C10.1707 11.9381 10.1912 12.0836 10.1569 12.2212C10.1227 12.3587 10.0363 12.4776 9.91609 12.5527C8.81316 13.1891 7.53227 13.4473 6.26893 13.2876C5.00557 13.128 3.82916 12.5593 2.91923 11.6686C2.00931 10.7779 1.41586 9.61381 1.22947 8.35417C1.04307 7.09456 1.27397 5.80856 1.88692 4.69245C2.49987 3.57634 3.46121 2.69144 4.62419 2.1728C5.78717 1.65416 7.08792 1.53028 8.3279 1.82006C9.56789 2.10985 10.679 2.79738 11.4916 3.77771C12.3042 4.75805 12.7738 5.97735 12.8285 7.24949C12.8315 7.27247 12.8329 7.29561 12.8329 7.31876V7.3946C12.8334 7.44078 12.8334 7.48696 12.8329 7.53314V8.41251C12.8332 8.84685 12.6924 9.2695 12.4317 9.61695C12.1711 9.9644 11.8047 10.2179 11.3876 10.3391C10.9704 10.4604 10.5253 10.443 10.119 10.2895C9.71264 10.136 9.36707 9.8548 9.13438 9.48803C8.67155 9.98525 8.04968 10.3054 7.37606 10.3931C6.70242 10.4809 6.0193 10.3307 5.44452 9.9687C4.86975 9.60659 4.43939 9.05527 4.22769 8.40983C4.01599 7.76438 4.03624 7.06528 4.28492 6.43315C4.53361 5.80102 4.99515 5.27552 5.5899 4.9473C6.18467 4.61909 6.87533 4.50874 7.54276 4.63532C8.21018 4.76189 8.81251 5.11744 9.2458 5.6406C9.67902 6.16378 9.91616 6.82177 9.91609 7.50106V8.41251C9.91609 8.65425 10.0121 8.88608 10.183 9.05702C10.354 9.22794 10.5859 9.32397 10.8276 9.32397C11.0693 9.32397 11.3012 9.22794 11.4721 9.05702C11.6431 8.88608 11.7391 8.65425 11.7391 8.41251V7.40408C11.7223 6.58037 11.4911 5.77525 11.0682 5.06815C10.6454 4.36105 10.0455 3.77638 9.32776 3.37181C8.61 2.96725 7.79917 2.75676 6.97526 2.7611C6.15134 2.76544 5.34279 2.98447 4.62934 3.39658V3.39585ZM8.82228 7.50106C8.82228 7.01759 8.6302 6.55393 8.28833 6.21206C7.94645 5.8702 7.48275 5.67814 6.99926 5.67814C6.51577 5.67814 6.05207 5.8702 5.71019 6.21206C5.36831 6.55393 5.17625 7.01759 5.17625 7.50106C5.17625 7.98452 5.36831 8.44819 5.71019 8.79005C6.05207 9.13191 6.51577 9.32397 6.99926 9.32397C7.48275 9.32397 7.94645 9.13191 8.28833 8.79005C8.6302 8.44819 8.82228 7.98452 8.82228 7.50106Z" fill="currentColor"/>
</g>
</svg>
