<svg width="73" height="72" viewBox="0 0 73 72" fill="none" xmlns="http://www.w3.org/2000/svg">
<circle cx="36.5" cy="36" r="36" fill="white"/>
<circle cx="36.5" cy="36" r="35.5" stroke="#8D8D8D" stroke-opacity="0.15"/>
<g clip-path="url(#clip0_131_120609)">
<path d="M52.8421 20L38.1959 30.8372L40.9195 24.4505L52.8421 20Z" fill="#E17726"/>
<path d="M20.3255 20.0127L32.2163 24.4512L34.8024 30.9216L20.3255 20.0127ZM46.948 43.0476L53.4215 43.1708L51.1591 50.8564L43.26 48.6816L46.948 43.0476ZM26.1852 43.0476L29.8595 48.6816L21.9737 50.8566L19.7251 43.1708L26.1852 43.0476Z" fill="#E27625"/>
<path d="M34.4508 29.2736L34.7153 37.818L26.7992 37.4578L29.0509 34.0608L29.0795 34.0281L34.4508 29.2736ZM38.6005 29.1782L44.0539 34.0284L44.0821 34.0609L46.3339 37.458L38.4195 37.818L38.6005 29.1782ZM30.0913 43.0725L34.4137 46.4404L29.3927 48.8645L30.0913 43.0725ZM43.0428 43.072L43.7269 48.8646L38.7199 46.4401L43.0428 43.072Z" fill="#E27625"/>
<path d="M38.8304 46.123L43.9113 48.5833L39.1851 50.8294L39.2341 49.3449L38.8304 46.123ZM34.3015 46.1241L33.9136 49.3206L33.9455 50.8277L29.2081 48.5833L34.3015 46.1241Z" fill="#D5BFB2"/>
<path d="M32.8343 38.9331L34.162 41.7235L29.6416 40.3992L32.8343 38.9331ZM40.2989 38.9334L43.5067 40.3992L38.9715 41.7231L40.2989 38.9334Z" fill="#233447"/>
<path d="M30.4368 43.0439L29.7061 49.0492L25.7897 43.1752L30.4368 43.0439ZM42.6968 43.044L47.344 43.1752L43.4129 49.0495L42.6968 43.044ZM46.4483 37.1182L43.0663 40.565L40.4587 39.3734L39.2103 41.9979L38.3919 37.4847L46.4483 37.1182ZM26.6833 37.1182L34.7413 37.4847L33.9228 41.9979L32.6741 39.3738L30.0804 40.5651L26.6833 37.1182Z" fill="#CC6228"/>
<path d="M26.4555 36.411L30.2819 40.2938L30.4144 44.127L26.4555 36.411ZM46.6817 36.4041L42.7156 44.1338L42.8649 40.2938L46.6817 36.4041ZM34.5543 36.6475L34.7083 37.6169L35.0888 40.0317L34.8441 47.4483L33.6875 41.4903L33.6871 41.4287L34.5543 36.6475ZM38.5771 36.6341L39.4465 41.4287L39.4461 41.4903L38.2865 47.4633L38.2407 45.9693L38.0597 39.9877L38.5771 36.6341Z" fill="#E27525"/>
<path d="M43.2051 40.1394L43.0756 43.4698L39.0391 46.6147L38.2231 46.0382L39.1377 41.3269L43.2051 40.1394ZM29.9423 40.1394L33.9955 41.3269L34.9101 46.0382L34.0941 46.6147L30.0575 43.4695L29.9423 40.1394Z" fill="#F5841F"/>
<path d="M28.4357 47.8477L33.6 50.2946L33.5781 49.2497L34.0103 48.8703H39.1215L39.5692 49.2483L39.5361 50.2925L44.6677 47.8538L42.1707 49.9173L39.1513 51.991H33.9688L30.9515 49.9087L28.4357 47.8477Z" fill="#C0AC9D"/>
<path d="M38.4605 45.7971L39.1907 46.313L39.6185 49.7269L38.9993 49.2041H34.1359L33.5284 49.7374L33.9423 46.3133L34.6727 45.7971H38.4605Z" fill="#161616"/>
<path d="M51.8752 20.3L53.6333 25.5743L52.5353 30.9072L53.3172 31.5103L52.2592 32.3175L53.0544 32.9316L52.0015 33.8904L52.6479 34.3586L50.9324 36.362L43.8964 34.3134L43.8355 34.2807L38.7652 30.0036L51.8752 20.3ZM21.2581 20.3L34.3683 30.0036L29.2979 34.2807L29.2369 34.3134L22.2009 36.362L20.4855 34.3586L21.1313 33.8908L20.0791 32.9316L20.8727 32.3182L19.7988 31.5087L20.6101 30.9052L19.5 25.5746L21.2581 20.3Z" fill="#763E1A"/>
<path d="M43.5523 33.8654L51.0073 36.036L53.4293 43.5008H47.0395L42.6368 43.5562L45.8387 37.3152L43.5523 33.8654ZM29.5811 33.8654L27.2943 37.3152L30.4965 43.5562L26.0959 43.5008H19.7175L22.1259 36.0361L29.5811 33.8654ZM41.2845 24.415L39.1993 30.0469L38.7568 37.6549L38.5875 40.0396L38.574 46.1313H34.5592L34.5461 40.051L34.3763 37.6529L33.9336 30.0469L31.8487 24.415H41.2845Z" fill="#F5841F"/>
</g>
<defs>
<clipPath id="clip0_131_120609">
<rect width="34.1333" height="32" fill="white" transform="translate(19.5 20)"/>
</clipPath>
</defs>
</svg>
