<svg width="87" height="125" viewBox="0 0 87 125" fill="none" xmlns="http://www.w3.org/2000/svg">
<g clip-path="url(#clip0_1742_149728)">
<path d="M40.132 3.53516L44.9636 0.591064L85.9081 24.3094V121.465L81.0765 124.409" fill="white"/>
<path d="M40.132 3.53516L44.9636 0.591064L85.9081 24.3094V121.465L81.0765 124.409" stroke="black" stroke-width="1.36612" stroke-linecap="round" stroke-linejoin="round"/>
<path d="M81.0765 124.409L40.132 100.691V3.5354L81.0765 27.2537V124.409Z" fill="white" stroke="black" stroke-width="1.36612" stroke-linecap="round" stroke-linejoin="round"/>
<path d="M69.4759 23.4942L69.6413 30.7776L49.1691 19.415L48.9919 11.6114L42.5419 7.86328V85.7577L78.4067 106.556V28.6611L69.4759 23.4942Z" fill="#16181C" stroke="black" stroke-width="1.36612" stroke-linecap="round" stroke-linejoin="round"/>
<path d="M62.2536 108.945C64.4885 107.827 65.0937 104.505 63.6054 101.526C62.1171 98.5479 59.0989 97.0401 56.864 98.1588C54.6291 99.2775 54.0239 102.599 55.5122 105.578C57.0005 108.556 60.0187 110.064 62.2536 108.945Z" fill="white" stroke="black" stroke-width="1.36612" stroke-linecap="round" stroke-linejoin="round"/>
<path d="M39.3997 73.4129H58.9623V44.4448C58.9623 28.4474 46.0033 15.4768 30.02 15.4768C14.0368 15.4768 1.08954 28.4592 1.08954 44.4448C1.08954 60.4305 14.0486 73.4129 30.0318 73.4129H39.3997Z" fill="white" stroke="black" stroke-width="1.36612" stroke-linecap="round" stroke-linejoin="round"/>
<path d="M50.7512 44.9293C50.7512 33.6022 41.5723 24.427 30.2671 24.427C18.9619 24.427 9.77124 33.6022 9.77124 44.9293C9.77124 56.2564 18.9383 65.4315 30.2553 65.4315H31.1885V46.892H22.1042V41.1812H45.955V46.892H36.8943V65.4315H50.7512V44.9293Z" fill="url(#paint0_linear_1742_149728)"/>
<path d="M36.8943 65.4319H31.1885V65.4792H36.8943V65.4319Z" fill="#16181C"/>
</g>
<defs>
<linearGradient id="paint0_linear_1742_149728" x1="9.77124" y1="44.936" x2="50.7512" y2="44.936" gradientUnits="userSpaceOnUse">
<stop stop-color="#6D89F6"/>
<stop offset="0.1" stop-color="#73ACD6"/>
<stop offset="0.22" stop-color="#7BD5B2"/>
<stop offset="0.29" stop-color="#7EE5A2"/>
<stop offset="0.38" stop-color="#80F394"/>
<stop offset="0.45" stop-color="#81F88F"/>
<stop offset="0.64" stop-color="#9CF884"/>
<stop offset="1" stop-color="#D6F76B"/>
</linearGradient>
<clipPath id="clip0_1742_149728">
<rect width="86" height="125" fill="white" transform="translate(0.5)"/>
</clipPath>
</defs>
</svg>
