<svg width="20" height="20" viewBox="0 0 20 20" fill="none" xmlns="http://www.w3.org/2000/svg">
<path fill-rule="evenodd" clip-rule="evenodd" d="M1.66666 10.0007C1.66666 9.55862 1.84225 9.1347 2.15481 8.82214C2.46737 8.50958 2.8913 8.33398 3.33332 8.33398C3.77535 8.33398 4.19927 8.50958 4.51183 8.82214C4.8244 9.1347 4.99999 9.55862 4.99999 10.0007C4.99999 10.4427 4.8244 10.8666 4.51183 11.1792C4.19927 11.4917 3.77535 11.6673 3.33332 11.6673C2.8913 11.6673 2.46737 11.4917 2.15481 11.1792C1.84225 10.8666 1.66666 10.4427 1.66666 10.0007ZM8.33332 10.0007C8.33332 9.55862 8.50892 9.1347 8.82148 8.82214C9.13404 8.50958 9.55796 8.33398 9.99999 8.33398C10.442 8.33398 10.8659 8.50958 11.1785 8.82214C11.4911 9.1347 11.6667 9.55862 11.6667 10.0007C11.6667 10.4427 11.4911 10.8666 11.1785 11.1792C10.8659 11.4917 10.442 11.6673 9.99999 11.6673C9.55796 11.6673 9.13404 11.4917 8.82148 11.1792C8.50892 10.8666 8.33332 10.4427 8.33332 10.0007ZM15 10.0007C15 9.55862 15.1756 9.1347 15.4881 8.82214C15.8007 8.50958 16.2246 8.33398 16.6667 8.33398C17.1087 8.33398 17.5326 8.50958 17.8452 8.82214C18.1577 9.1347 18.3333 9.55862 18.3333 10.0007C18.3333 10.4427 18.1577 10.8666 17.8452 11.1792C17.5326 11.4917 17.1087 11.6673 16.6667 11.6673C16.2246 11.6673 15.8007 11.4917 15.4881 11.1792C15.1756 10.8666 15 10.4427 15 10.0007Z" fill="#8D8D8D"/>
</svg>
