<svg width="24" height="25" viewBox="0 0 24 25" fill="none" xmlns="http://www.w3.org/2000/svg">
<path d="M11.8786 3.42542C11.9541 3.38347 12.0459 3.38347 12.1214 3.42542L20.1214 7.86986C20.2008 7.91396 20.25 7.99761 20.25 8.0884V16.9116C20.25 17.0024 20.2008 17.086 20.1214 17.1301L12.1214 21.5746L12.4856 22.2302L12.1214 21.5746C12.0459 21.6165 11.9541 21.6165 11.8786 21.5746L11.5144 22.2302L11.8786 21.5746L3.87859 17.1301C3.79922 17.086 3.75 17.0024 3.75 16.9116V8.0884C3.75 7.99761 3.79922 7.91396 3.87859 7.86986L3.51436 7.21425L3.87859 7.86986L11.8786 3.42542L11.5144 2.7698L11.8786 3.42542Z" stroke="currentColor" stroke-width="1.5"/>
<path d="M6.91172 14.554C6.74372 14.554 6.61572 14.51 6.52772 14.422C6.43972 14.334 6.39572 14.204 6.39572 14.032V10.762C6.39572 10.586 6.43972 10.452 6.52772 10.36C6.61572 10.264 6.73172 10.216 6.87572 10.216C7.00372 10.216 7.10372 10.24 7.17572 10.288C7.24772 10.336 7.32772 10.416 7.41572 10.528L9.31772 12.904H9.14972V10.732C9.14972 10.564 9.19172 10.436 9.27572 10.348C9.36372 10.26 9.49172 10.216 9.65972 10.216C9.82772 10.216 9.95372 10.26 10.0377 10.348C10.1257 10.436 10.1697 10.564 10.1697 10.732V14.056C10.1697 14.208 10.1297 14.33 10.0497 14.422C9.96972 14.51 9.86172 14.554 9.72572 14.554C9.58972 14.554 9.48172 14.53 9.40172 14.482C9.32572 14.43 9.24372 14.35 9.15572 14.242L7.25372 11.86H7.42172V14.032C7.42172 14.204 7.37772 14.334 7.28972 14.422C7.20572 14.51 7.07972 14.554 6.91172 14.554ZM11.5006 14.554C11.3246 14.554 11.1866 14.506 11.0866 14.41C10.9906 14.31 10.9426 14.168 10.9426 13.984V10.84C10.9426 10.656 10.9906 10.516 11.0866 10.42C11.1866 10.32 11.3306 10.27 11.5186 10.27H13.5166C13.6606 10.27 13.7686 10.306 13.8406 10.378C13.9126 10.45 13.9486 10.554 13.9486 10.69C13.9486 10.83 13.9126 10.938 13.8406 11.014C13.7686 11.086 13.6606 11.122 13.5166 11.122H12.0466V11.974H13.3846C13.5246 11.974 13.6306 12.01 13.7026 12.082C13.7786 12.154 13.8166 12.258 13.8166 12.394C13.8166 12.534 13.7786 12.64 13.7026 12.712C13.6306 12.784 13.5246 12.82 13.3846 12.82H12.0466V13.984C12.0466 14.364 11.8646 14.554 11.5006 14.554ZM16.059 14.554C15.883 14.554 15.747 14.506 15.651 14.41C15.555 14.31 15.507 14.172 15.507 13.996V11.17H14.565C14.417 11.17 14.303 11.132 14.223 11.056C14.147 10.976 14.109 10.864 14.109 10.72C14.109 10.572 14.147 10.46 14.223 10.384C14.303 10.308 14.417 10.27 14.565 10.27H17.553C17.701 10.27 17.813 10.308 17.889 10.384C17.969 10.46 18.009 10.572 18.009 10.72C18.009 10.864 17.969 10.976 17.889 11.056C17.813 11.132 17.701 11.17 17.553 11.17H16.611V13.996C16.611 14.172 16.565 14.31 16.473 14.41C16.381 14.506 16.243 14.554 16.059 14.554Z" fill="currentColor"/>
</svg>
