<svg width="96" height="95" viewBox="0 0 96 95" fill="none" xmlns="http://www.w3.org/2000/svg">
<path d="M2.22186 57.2617L42.0413 17.6602C42.0413 17.6602 64.0211 51.2954 94.9998 53.559L61.7858 93.9994C30.7999 91.7358 2.33686 57.3846 2.33686 57.3846L2.22186 57.2617Z" fill="white" stroke="#1F2329" stroke-width="1.5" stroke-linecap="round" stroke-linejoin="round"/>
<path d="M1.00018 28.327L51.3639 3.89062C51.3639 3.89062 61.4194 42.5737 90.0334 54.6509L45.6498 81.9944C17.043 69.91 1.07206 28.4789 1.07206 28.4789L1.00018 28.327Z" fill="white" stroke="#1F2329" stroke-width="1.5" stroke-linecap="round" stroke-linejoin="round"/>
<path d="M60.5294 1.69141L38.909 25.3033L37.4787 33.1065L44.9682 31.1828L66.718 7.43348" fill="white"/>
<path d="M60.5294 1.69141L38.909 25.3033L37.4787 33.1065L44.9682 31.1828L66.718 7.43348" stroke="#1F2329" stroke-width="1.5" stroke-linecap="round" stroke-linejoin="round"/>
<path d="M66.7196 7.43176C67.5777 6.49481 66.889 4.45171 65.1812 2.86839C63.4735 1.28506 61.3935 0.761072 60.5354 1.69803C59.6773 2.63498 60.366 4.67807 62.0738 6.2614C63.7815 7.84473 65.8615 8.36872 66.7196 7.43176Z" fill="white" stroke="#1F2329" stroke-width="1.5" stroke-linecap="round" stroke-linejoin="round"/>
<path d="M64.3104 10.0591C63.4551 10.9992 61.3707 10.4713 59.66 8.88751C57.9494 7.30373 57.2593 5.25713 58.1219 4.32422" fill="white"/>
<path d="M64.3104 10.0591C63.4551 10.9992 61.3707 10.4713 59.66 8.88751C57.9494 7.30373 57.2593 5.25713 58.1219 4.32422" stroke="#1F2329" stroke-width="1.5" stroke-linecap="round" stroke-linejoin="round"/>
<path d="M45.6796 30.4028C44.8242 31.343 42.7398 30.815 41.0292 29.2313C39.3185 27.6475 38.6285 25.6009 39.491 24.668" fill="white"/>
<path d="M45.6796 30.4028C44.8242 31.343 42.7398 30.815 41.0292 29.2313C39.3185 27.6475 38.6285 25.6009 39.491 24.668" stroke="#1F2329" stroke-width="1.5" stroke-linecap="round" stroke-linejoin="round"/>
<path d="M6.34784 30.4084C6.34784 30.4084 11.4151 42.5 15.2174 46.8029L32.4821 37.2424C32.4821 37.2424 25.5676 25.8885 24.5613 21.6289L6.34784 30.4084Z" fill="white" stroke="#1F2329" stroke-width="1.5" stroke-linecap="round" stroke-linejoin="round"/>
<path d="M17.7473 50.3832L45.5203 35.1602" stroke="#1F2329" stroke-width="1.5" stroke-linecap="round" stroke-linejoin="round"/>
<path d="M19.4152 53.0662L47.1882 37.8359" stroke="#1F2329" stroke-width="1.5" stroke-linecap="round" stroke-linejoin="round"/>
<path d="M21.0832 55.7498L48.8562 40.5195" stroke="#1F2329" stroke-width="1.5" stroke-linecap="round" stroke-linejoin="round"/>
<path d="M23.5988 58.1644L51.3646 42.9414" stroke="#1F2329" stroke-width="1.5" stroke-linecap="round" stroke-linejoin="round"/>
<path d="M25.8557 60.6761L53.6287 45.4531" stroke="#1F2329" stroke-width="1.5" stroke-linecap="round" stroke-linejoin="round"/>
<path d="M44.3771 61.9412L72.1501 46.7109" stroke="#1F2329" stroke-width="1.5" stroke-linecap="round" stroke-linejoin="round"/>
<path d="M46.7707 64.2263L74.5365 48.9961" stroke="#1F2329" stroke-width="1.5" stroke-linecap="round" stroke-linejoin="round"/>
<path d="M49.2365 66.4691L77.0023 51.2461" stroke="#1F2329" stroke-width="1.5" stroke-linecap="round" stroke-linejoin="round"/>
<path d="M51.673 68.9261L79.446 53.7031" stroke="#1F2329" stroke-width="1.5" stroke-linecap="round" stroke-linejoin="round"/>
<path d="M54.4826 70.6996L82.2484 55.4766" stroke="#1F2329" stroke-width="1.5" stroke-linecap="round" stroke-linejoin="round"/>
</svg>
