<svg width="16" height="16" viewBox="0 0 16 16" fill="none" xmlns="http://www.w3.org/2000/svg">
<path d="M9.99963 5L4.79289 10.2932C4.60536 10.4807 4.5 10.7351 4.5 11.0003C4.5 11.2655 4.60536 11.5199 4.79289 11.7074C4.98043 11.8949 5.23478 12.0003 5.5 12.0003C5.76522 12.0003 6.01957 11.8949 6.20711 11.7074L12.4138 5.41421C12.5996 5.2285 12.7469 5.00802 12.8474 4.76537C12.9479 4.52272 12.9996 4.26264 12.9996 4C12.9996 3.73736 12.9479 3.47728 12.8474 3.23463C12.7469 2.99198 12.5996 2.7715 12.4138 2.58579C12.2281 2.40007 12.0077 2.25275 11.765 2.15224C11.5223 2.05173 11.2623 2 10.9996 2C10.737 2 10.4769 2.05173 10.2343 2.15224C9.99161 2.25275 9.77114 2.40007 9.58542 2.58579L3.37868 8.87898C2.81607 9.44159 2.5 10.2047 2.5 11.0003C2.5 11.796 2.81607 12.559 3.37868 13.1216C3.94129 13.6842 4.70435 14.0003 5.5 14.0003C6.29565 14.0003 7.05871 13.6842 7.62132 13.1216L12.7496 8" stroke="#D6F76B" stroke-linecap="round" stroke-linejoin="round"/>
</svg>
