<svg width="96" height="95" viewBox="0 0 96 95" fill="none" xmlns="http://www.w3.org/2000/svg">
<path d="M2.22186 57.2617L42.0413 17.6602C42.0413 17.6602 64.0211 51.2954 94.9998 53.559L61.7858 93.9994C30.7999 91.7358 2.33686 57.3846 2.33686 57.3846L2.22186 57.2617V57.2617Z" fill="white" stroke="#1F2329" stroke-width="1.5" stroke-linecap="round" stroke-linejoin="round"/>
<path d="M1.00018 28.325L51.3639 3.88867C51.3639 3.88867 61.4194 42.5718 90.0334 54.6489L45.6498 81.9925C17.043 69.9081 1.07206 28.4769 1.07206 28.4769L1.00018 28.325Z" fill="white" stroke="#1F2329" stroke-width="1.5" stroke-linecap="round" stroke-linejoin="round"/>
<path d="M60.5294 1.69336L38.909 25.3053L37.4787 33.1085L44.9682 31.1848L66.718 7.43544" fill="white"/>
<path d="M60.5294 1.69336L38.909 25.3053L37.4787 33.1085L44.9682 31.1848L66.718 7.43544" stroke="#1F2329" stroke-width="1.5" stroke-linecap="round" stroke-linejoin="round"/>
<path d="M66.7196 7.42981C67.5777 6.49285 66.889 4.44976 65.1812 2.86643C63.4735 1.28311 61.3935 0.759119 60.5354 1.69607C59.6773 2.63303 60.366 4.67612 62.0738 6.25945C63.7815 7.84277 65.8615 8.36676 66.7196 7.42981Z" fill="white" stroke="#1F2329" stroke-width="1.5" stroke-linecap="round" stroke-linejoin="round"/>
<path d="M64.3104 10.0591C63.4551 10.9992 61.3707 10.4713 59.66 8.88751C57.9494 7.30373 57.2593 5.25713 58.1219 4.32422" fill="white"/>
<path d="M64.3104 10.0591C63.4551 10.9992 61.3707 10.4713 59.66 8.88751C57.9494 7.30373 57.2593 5.25713 58.1219 4.32422" stroke="#1F2329" stroke-width="1.5" stroke-linecap="round" stroke-linejoin="round"/>
<path d="M45.6796 30.4009C44.8242 31.341 42.7398 30.8131 41.0292 29.2293C39.3185 27.6455 38.6285 25.5989 39.491 24.666" fill="white"/>
<path d="M45.6796 30.4009C44.8242 31.341 42.7398 30.8131 41.0292 29.2293C39.3185 27.6455 38.6285 25.5989 39.491 24.666" stroke="#1F2329" stroke-width="1.5" stroke-linecap="round" stroke-linejoin="round"/>
<path d="M6.34784 30.4103C6.34784 30.4103 11.4151 42.5019 15.2174 46.8049L32.4821 37.2444C32.4821 37.2444 25.5676 25.8904 24.5613 21.6309L6.34784 30.4103Z" fill="white" stroke="#1F2329" stroke-width="1.5" stroke-linecap="round" stroke-linejoin="round"/>
<path d="M17.7472 50.3851L45.5203 35.1621" stroke="#1F2329" stroke-width="1.5" stroke-linecap="round" stroke-linejoin="round"/>
<path d="M19.4152 53.0662L47.1882 37.8359" stroke="#1F2329" stroke-width="1.5" stroke-linecap="round" stroke-linejoin="round"/>
<path d="M21.0832 55.7498L48.8562 40.5195" stroke="#1F2329" stroke-width="1.5" stroke-linecap="round" stroke-linejoin="round"/>
<path d="M23.5988 58.1644L51.3646 42.9414" stroke="#1F2329" stroke-width="1.5" stroke-linecap="round" stroke-linejoin="round"/>
<path d="M25.8556 60.6742L53.6287 45.4512" stroke="#1F2329" stroke-width="1.5" stroke-linecap="round" stroke-linejoin="round"/>
<path d="M44.3771 61.9392L72.1501 46.709" stroke="#1F2329" stroke-width="1.5" stroke-linecap="round" stroke-linejoin="round"/>
<path d="M46.7707 64.2244L74.5365 48.9941" stroke="#1F2329" stroke-width="1.5" stroke-linecap="round" stroke-linejoin="round"/>
<path d="M49.2365 66.4672L77.0023 51.2441" stroke="#1F2329" stroke-width="1.5" stroke-linecap="round" stroke-linejoin="round"/>
<path d="M51.673 68.9261L79.446 53.7031" stroke="#1F2329" stroke-width="1.5" stroke-linecap="round" stroke-linejoin="round"/>
<path d="M54.4826 70.6976L82.2484 55.4746" stroke="#1F2329" stroke-width="1.5" stroke-linecap="round" stroke-linejoin="round"/>
</svg>
