<svg width="22" height="24" viewBox="0 0 22 24" fill="none" xmlns="http://www.w3.org/2000/svg">
<path d="M2.85763 16.6668H18.7826L16.5076 14.1001L18.1701 12.4376L21.3201 16.0251V21.3334C21.3201 21.9751 21.0919 22.5246 20.6353 22.9819C20.178 23.4385 19.6285 23.6668 18.9868 23.6668H2.65346C2.0118 23.6668 1.4623 23.4385 1.00496 22.9819C0.548407 22.5246 0.320129 21.9751 0.320129 21.3334V16.0251L3.52846 12.3793L5.19096 14.0418L2.85763 16.6668ZM18.316 8.99593L12.4826 14.8293C12.0354 15.2765 11.4863 15.4954 10.8353 15.4861C10.1835 15.476 9.63402 15.2473 9.1868 14.8001L5.13263 10.6876C4.68541 10.2404 4.4618 9.68621 4.4618 9.0251C4.4618 8.36399 4.68541 7.80982 5.13263 7.3626L10.8493 1.64593C11.2965 1.19871 11.8507 0.975098 12.5118 0.975098C13.1729 0.975098 13.7271 1.19871 14.1743 1.64593L18.2868 5.7001C18.734 6.14732 18.9627 6.69643 18.9728 7.34743C18.9821 7.99921 18.7632 8.54871 18.316 8.99593ZM16.6535 7.33343L12.5118 3.2501L6.7368 9.0251L10.8785 13.1084L16.6535 7.33343Z" fill="currentColor"/>
</svg>
