<svg width="20" height="20" viewBox="0 0 20 20" fill="none" xmlns="http://www.w3.org/2000/svg">
<path d="M9.99999 17.7782C14.2955 17.7782 17.7778 14.296 17.7778 10.0004C17.7778 5.70489 14.2955 2.22266 9.99999 2.22266C5.70444 2.22266 2.22221 5.70489 2.22221 10.0004C2.22221 14.296 5.70444 17.7782 9.99999 17.7782Z" stroke="#D6F76B" stroke-width="2" stroke-linecap="round" stroke-linejoin="round"/>
<path d="M10 13.334V13.3446" stroke="#D6F76B" stroke-width="2" stroke-linecap="round" stroke-linejoin="round"/>
<path d="M10 9.99935C10.2797 9.99949 10.5549 9.92925 10.8003 9.79511C11.0457 9.66096 11.2534 9.46722 11.4043 9.23172C11.5551 8.99623 11.6443 8.72656 11.6636 8.44756C11.6829 8.16855 11.6316 7.88918 11.5146 7.63518C11.3975 7.38118 11.2185 7.16072 10.9938 6.9941C10.7692 6.82748 10.5063 6.72006 10.2292 6.68174C9.95222 6.64341 9.67 6.67542 9.40858 6.77481C9.14717 6.8742 8.91497 7.03777 8.73337 7.25046" stroke="#D6F76B" stroke-width="2" stroke-linecap="round" stroke-linejoin="round"/>
</svg>
