<svg width="24" height="24" viewBox="0 0 20 20" fill="none" xmlns="http://www.w3.org/2000/svg">
<path d="M6 8H2V4" stroke="white" stroke-width="1.5" stroke-linecap="round" stroke-linejoin="round"/>
<path d="M15 5.15811C14.3293 4.4739 13.5331 3.93116 12.6568 3.56087C11.7805 3.19059 10.8413 3 9.89286 3C8.94437 3 8.00518 3.19059 7.12889 3.56087C6.25261 3.93116 5.45639 4.4739 4.78571 5.15811L2 8" stroke="white" stroke-width="1.5" stroke-linecap="round" stroke-linejoin="round"/>
<path d="M14 12H18V16" stroke="white" stroke-width="1.5" stroke-linecap="round" stroke-linejoin="round"/>
<path d="M5 14.8419C5.67068 15.5261 6.46689 16.0688 7.34318 16.4391C8.21946 16.8094 9.15866 17 10.1071 17C11.0556 17 11.9948 16.8094 12.8711 16.4391C13.7474 16.0688 14.5436 15.5261 15.2143 14.8419L18 12" stroke="white" stroke-width="1.5" stroke-linecap="round" stroke-linejoin="round"/>
</svg>
