<svg width="20" height="20" viewBox="0 0 20 20" fill="none" xmlns="http://www.w3.org/2000/svg">
<path fill-rule="evenodd" clip-rule="evenodd" d="M11.9647 1.83974C12.1953 1.60908 12.5693 1.60908 12.8 1.83974L15.7758 4.81563C15.7831 4.82276 15.7901 4.83008 15.7969 4.83758C15.8408 4.88568 15.8753 4.93927 15.9004 4.99602C15.9329 5.06917 15.9509 5.15015 15.9509 5.23534C15.9509 5.32053 15.9329 5.40151 15.9004 5.47466C15.8755 5.53103 15.8412 5.5843 15.7978 5.63215C15.7906 5.64001 15.7833 5.64768 15.7758 5.65515L12.8 8.63094C12.5693 8.8616 12.1953 8.8616 11.9647 8.63094C11.734 8.40029 11.734 8.02632 11.9647 7.79567L13.9344 5.82597H3.44844C3.28916 5.82597 3.13641 5.88924 3.02378 6.00187C2.91116 6.11449 2.84788 6.26725 2.84788 6.42653V8.8089C2.84788 9.13509 2.58345 9.39953 2.25726 9.39953C1.93106 9.39953 1.66663 9.13509 1.66663 8.8089V6.42653C1.66663 5.95396 1.85435 5.50075 2.18851 5.16659C2.52266 4.83244 2.97587 4.64471 3.44844 4.64471H13.9344L11.9647 2.67502C11.734 2.44436 11.734 2.07039 11.9647 1.83974ZM8.03523 11.3692C8.26588 11.5999 8.26588 11.9738 8.03523 12.2045L6.06553 14.1742H16.5515C16.7108 14.1742 16.8635 14.1109 16.9761 13.9983C17.0888 13.8857 17.152 13.7329 17.152 13.5736V11.1913C17.152 10.8651 17.4165 10.6006 17.7427 10.6006C18.0689 10.6006 18.3333 10.8651 18.3333 11.1913V13.5736C18.3333 14.0462 18.1456 14.4994 17.8114 14.8336C17.4773 15.1677 17.0241 15.3554 16.5515 15.3554H6.06553L8.03523 17.3251C8.26588 17.5558 8.26588 17.9298 8.03523 18.1604C7.80457 18.3911 7.43061 18.3911 7.19995 18.1604L4.22199 15.1825C4.16175 15.1222 4.11725 15.0522 4.08847 14.9775C4.06711 14.9222 4.05383 14.8629 4.0501 14.801C4.04864 14.777 4.04863 14.753 4.05007 14.7291C4.05377 14.667 4.06706 14.6076 4.08847 14.5521C4.11725 14.4774 4.16175 14.4074 4.22199 14.3472L7.19995 11.3692C7.43061 11.1386 7.80457 11.1386 8.03523 11.3692Z" fill="currentColor"/>
</svg>
