<svg width="16" height="16" viewBox="0 0 16 16" fill="none" xmlns="http://www.w3.org/2000/svg">
<path d="M3.33328 4.00006C3.51009 4.00006 3.67966 4.0703 3.80469 4.19532C3.92971 4.32035 3.99995 4.48992 3.99995 4.66673V7.33339C3.99995 7.51021 4.07018 7.67977 4.19521 7.8048C4.32023 7.92982 4.4898 8.00006 4.66661 8.00006H11.0599L10.1933 7.14006C10.0677 7.01453 9.99722 6.84426 9.99722 6.66673C9.99722 6.48919 10.0677 6.31893 10.1933 6.19339C10.3188 6.06786 10.4891 5.99733 10.6666 5.99733C10.8441 5.99733 11.0144 6.06786 11.1399 6.19339L13.1399 8.19339C13.2006 8.2568 13.2482 8.33156 13.2799 8.41339C13.3466 8.5757 13.3466 8.75775 13.2799 8.92006C13.2482 9.0019 13.2006 9.07666 13.1399 9.14006L11.1399 11.1401C11.078 11.2025 11.0042 11.2521 10.923 11.286C10.8418 11.3198 10.7546 11.3373 10.6666 11.3373C10.5786 11.3373 10.4915 11.3198 10.4102 11.286C10.329 11.2521 10.2553 11.2025 10.1933 11.1401C10.1308 11.0781 10.0812 11.0044 10.0474 10.9231C10.0135 10.8419 9.99608 10.7547 9.99608 10.6667C9.99608 10.5787 10.0135 10.4916 10.0474 10.4103C10.0812 10.3291 10.1308 10.2554 10.1933 10.1934L11.0599 9.33339H4.66661C4.13618 9.33339 3.62747 9.12268 3.2524 8.74761C2.87733 8.37254 2.66661 7.86383 2.66661 7.33339V4.66673C2.66661 4.48992 2.73685 4.32035 2.86188 4.19532C2.9869 4.0703 3.15647 4.00006 3.33328 4.00006Z" fill="currentColor"/>
</svg>
