<svg width="75" height="122" viewBox="0 0 75 122" fill="none" xmlns="http://www.w3.org/2000/svg">
<g clip-path="url(#clip0_1293_159853)">
<path d="M73.8471 121.347L15.1529 86.5965V0.652344L73.8471 35.4032V121.347Z" fill="white" stroke="black" stroke-linecap="round" stroke-linejoin="round"/>
<path d="M36.4108 54.6401L18.3651 44.4876V24.6523L36.4108 34.8049V54.6401Z" fill="white" stroke="black" stroke-linecap="round" stroke-linejoin="round"/>
<path d="M15.1529 15.5664L73.8471 50.4869" stroke="black" stroke-linecap="round" stroke-linejoin="round"/>
<path d="M64.0147 34.2539L69.8123 43.8845" stroke="black" stroke-linecap="round" stroke-linejoin="round"/>
<path d="M69.8123 37.5156L64.0147 40.6214" stroke="black" stroke-linecap="round" stroke-linejoin="round"/>
<path d="M40.6676 37.5156L69.8123 54.6366" stroke="black" stroke-linecap="round" stroke-linejoin="round"/>
<path d="M40.6676 41.9297L69.8123 59.0507" stroke="black" stroke-linecap="round" stroke-linejoin="round"/>
<path d="M40.6676 46.3398L69.8123 63.4608" stroke="black" stroke-linecap="round" stroke-linejoin="round"/>
<path d="M40.6676 50.75L69.8123 67.871" stroke="black" stroke-linecap="round" stroke-linejoin="round"/>
<path d="M40.6676 55.1602L69.8123 72.2811" stroke="black" stroke-linecap="round" stroke-linejoin="round"/>
<path d="M40.6676 59.5703L69.8123 76.6913" stroke="black" stroke-linecap="round" stroke-linejoin="round"/>
<path d="M40.6676 63.9688L69.8123 81.1028" stroke="black" stroke-linecap="round" stroke-linejoin="round"/>
<path d="M40.6676 68.3789L69.8123 85.5129" stroke="black" stroke-linecap="round" stroke-linejoin="round"/>
<path d="M40.6676 72.7891L69.8123 89.9231" stroke="black" stroke-linecap="round" stroke-linejoin="round"/>
<path d="M40.6676 77.1992L69.8123 94.3202" stroke="black" stroke-linecap="round" stroke-linejoin="round"/>
<path d="M40.6676 81.6133L69.8123 98.7343" stroke="black" stroke-linecap="round" stroke-linejoin="round"/>
</g>
<g clip-path="url(#clip1_1293_159853)">
<path d="M30.39 106.39L1 89.83V57.5L30.39 74.06V106.39Z" fill="white" stroke="black" stroke-linecap="round" stroke-linejoin="round"/>
<path d="M26.89 100.57L4.5 87.9503V63.3203L26.89 75.9403V100.57Z" fill="white" stroke="black" stroke-linecap="round" stroke-linejoin="round"/>
</g>
<defs>
<clipPath id="clip0_1293_159853">
<rect width="60" height="122" fill="white" transform="translate(14.5)"/>
</clipPath>
<clipPath id="clip1_1293_159853">
<rect width="30.39" height="49.89" fill="white" transform="translate(0.5 57)"/>
</clipPath>
</defs>
</svg>
