<svg width="20" height="20" viewBox="0 0 20 20" fill="none" xmlns="http://www.w3.org/2000/svg">
<path d="M15 12.8125C13.4467 12.8125 12.1875 11.5533 12.1875 10C12.1875 8.4467 13.4467 7.1875 15 7.1875C16.5533 7.1875 17.8125 8.4467 17.8125 10C17.8125 11.5533 16.5533 12.8125 15 12.8125Z" fill="#8D8D8D"/>
<path d="M5 17.8125C3.4467 17.8125 2.1875 16.5533 2.1875 15C2.1875 13.4467 3.4467 12.1875 5 12.1875C6.5533 12.1875 7.8125 13.4467 7.8125 15C7.8125 16.5533 6.5533 17.8125 5 17.8125Z" fill="#8D8D8D"/>
<path d="M5 7.8125C3.4467 7.8125 2.1875 6.5533 2.1875 5C2.1875 3.4467 3.4467 2.1875 5 2.1875C6.5533 2.1875 7.8125 3.4467 7.8125 5C7.8125 6.5533 6.5533 7.8125 5 7.8125Z" fill="#8D8D8D"/>
<path d="M12.5 8.75L7.5 6.25M12.5 11.25L7.5 13.75L12.5 11.25Z" stroke="#8D8D8D" stroke-width="1.5" stroke-linecap="round" stroke-linejoin="round"/>
</svg>
