<svg width="16" height="17" viewBox="0 0 16 17" fill="none" xmlns="http://www.w3.org/2000/svg">
<path d="M14 3.80215C13.5506 4.02669 13.074 4.17408 12.586 4.23941C13.0943 3.89574 13.4847 3.35152 13.6685 2.70308C13.1852 3.02655 12.6565 3.25446 12.1051 3.37695C11.656 2.83728 11.0162 2.5 10.3081 2.5C8.94842 2.5 7.84606 3.74336 7.84606 5.27689C7.84606 5.49456 7.86786 5.70648 7.90981 5.90977C5.86372 5.79393 4.04966 4.68841 2.83536 3.00832C2.62348 3.41846 2.50208 3.89553 2.50208 4.40438C2.50208 5.36783 2.93675 6.21776 3.59731 6.71577C3.20635 6.70196 2.82399 6.58285 2.48216 6.36839C2.48202 6.38003 2.48202 6.39166 2.48202 6.40334C2.48202 7.7488 3.33064 8.87119 4.45686 9.1263C4.09432 9.23751 3.71404 9.25379 3.34508 9.17388C3.65834 10.2771 4.56758 11.08 5.64486 11.1024C4.80228 11.8472 3.7407 12.2912 2.5873 12.2912C2.38855 12.2912 2.19261 12.278 2 12.2524C3.08952 13.0403 4.38359 13.5 5.77391 13.5C10.3024 13.5 12.7786 9.26853 12.7786 5.59894C12.7786 5.47849 12.7763 5.35873 12.7715 5.23966C13.2535 4.84665 13.6695 4.35987 14 3.80215Z" fill="#55ACEE"/>
</svg>
