<svg width="14" height="13" viewBox="0 0 14 13" fill="none" xmlns="http://www.w3.org/2000/svg">
<g clip-path="url(#clip0_1244_9997)">
<path d="M4.29824 8.78128C3.62549 8.78128 2.94027 8.78128 2.25506 8.78128C2.09939 8.78336 1.94391 8.77038 1.79098 8.74253C1.31634 8.6478 0.900146 8.3772 0.633268 7.98983C0.366391 7.60245 0.27051 7.12976 0.366558 6.67497C0.677327 5.05549 0.98602 3.43503 1.29264 1.81357C1.45667 0.950178 2.17615 0.345111 3.09081 0.340143C4.90767 0.330871 6.72453 0.330871 8.54139 0.340143C9.00805 0.345249 9.12135 0.522296 9.4551 0.834466C9.78884 1.14664 9.98401 1.5699 10 2.01625C10 2.07189 10 2.12753 10 2.18316V7.61685C10 7.91491 9.93044 8.00631 9.6304 8.09275C9.02185 8.25027 8.78883 8.53041 8.30261 8.91441C7.57586 9.51054 7.24364 10.2875 7.16992 11.1807C7.14085 11.5364 7.1367 11.895 7.11386 12.2517C7.1074 12.3374 7.08925 12.4219 7.05987 12.5031C7.01881 12.6508 6.92619 12.7806 6.79738 12.871C6.66858 12.9613 6.51136 13.0068 6.35182 12.9999C5.58354 12.9999 5.03329 12.6501 4.65539 12.0272C4.26606 11.3834 4.13628 10.6789 4.17262 9.94869C4.18923 9.5622 4.2536 9.17869 4.29824 8.78128Z" fill="currentColor"/>
</g>
<rect x="13.6667" y="8.33334" width="2.66667" height="8" rx="1" transform="rotate(180 13.6667 8.33334)" fill="currentColor"/>
<defs>
<clipPath id="clip0_1244_9997">
<rect width="10" height="12.6667" fill="white" transform="matrix(-1 0 0 -1 10.3333 13)"/>
</clipPath>
</defs>
</svg>
