<svg width="100%" height="100%" viewBox="0 0 20 20" fill="none" xmlns="http://www.w3.org/2000/svg">
<path d="M9.99984 10.8334C10.2209 10.8334 10.4328 10.9212 10.5891 11.0775C10.7454 11.2337 10.8332 11.4457 10.8332 11.6667V14.1667C10.8332 14.3877 10.7454 14.5997 10.5891 14.756C10.4328 14.9123 10.2209 15.0001 9.99984 15.0001C9.77882 15.0001 9.56686 14.9123 9.41058 14.756C9.2543 14.5997 9.1665 14.3877 9.1665 14.1667V11.6667C9.1665 11.4457 9.2543 11.2337 9.41058 11.0775C9.56686 10.9212 9.77882 10.8334 9.99984 10.8334ZM5.83317 7.50006H12.4998V5.83339C12.5011 5.33855 12.3554 4.85447 12.0813 4.44248C11.8072 4.03048 11.417 3.70909 10.9601 3.51902C10.5032 3.32895 10.0002 3.27874 9.51476 3.37476C9.02932 3.47078 8.58329 3.7087 8.23317 4.05839C7.91988 4.37845 7.69579 4.77491 7.58317 5.20839C7.55581 5.31454 7.50781 5.41426 7.44191 5.50187C7.37602 5.58947 7.29351 5.66323 7.1991 5.71895C7.1047 5.77466 7.00024 5.81124 6.8917 5.82658C6.78316 5.84193 6.67266 5.83575 6.5665 5.80839C6.46035 5.78103 6.36063 5.73303 6.27303 5.66713C6.18542 5.60123 6.11166 5.51873 6.05595 5.42432C6.00023 5.32991 5.96366 5.22546 5.94831 5.11692C5.93296 5.00838 5.93915 4.89787 5.9665 4.79172C6.15635 4.07072 6.53289 3.4125 7.05817 2.88339C7.64135 2.30203 8.38372 1.9065 9.19154 1.74676C9.99935 1.58701 10.8364 1.67021 11.597 1.98585C12.3575 2.30149 13.0075 2.83541 13.4648 3.5202C13.9222 4.20499 14.1663 5.00993 14.1665 5.83339V7.50006C14.8295 7.50006 15.4654 7.76345 15.9343 8.23229C16.4031 8.70113 16.6665 9.33701 16.6665 10.0001V15.8334C16.6665 16.4964 16.4031 17.1323 15.9343 17.6012C15.4654 18.07 14.8295 18.3334 14.1665 18.3334H5.83317C5.17013 18.3334 4.53424 18.07 4.0654 17.6012C3.59656 17.1323 3.33317 16.4964 3.33317 15.8334V10.0001C3.33317 9.33701 3.59656 8.70113 4.0654 8.23229C4.53424 7.76345 5.17013 7.50006 5.83317 7.50006ZM4.99984 15.8334C4.99984 16.0544 5.08763 16.2664 5.24391 16.4226C5.4002 16.5789 5.61216 16.6667 5.83317 16.6667H14.1665C14.3875 16.6667 14.5995 16.5789 14.7558 16.4226C14.912 16.2664 14.9998 16.0544 14.9998 15.8334V10.0001C14.9998 9.77904 14.912 9.56708 14.7558 9.4108C14.5995 9.25452 14.3875 9.16672 14.1665 9.16672H5.83317C5.61216 9.16672 5.4002 9.25452 5.24391 9.4108C5.08763 9.56708 4.99984 9.77904 4.99984 10.0001V15.8334Z" fill="currentColor"/>
</svg>
