<svg width="100%" height="100%" viewBox="0 0 20 20" fill="none" xmlns="http://www.w3.org/2000/svg">
<g clip-path="url(#clip0_1745_822)">
<path d="M7.49996 9.16667C9.34091 9.16667 10.8333 7.67428 10.8333 5.83333C10.8333 3.99238 9.34091 2.5 7.49996 2.5C5.65901 2.5 4.16663 3.99238 4.16663 5.83333C4.16663 7.67428 5.65901 9.16667 7.49996 9.16667Z" stroke="currentColor" stroke-width="2" stroke-linecap="round" stroke-linejoin="round"/>
<path d="M2.5 17.5V15.8333C2.5 14.9493 2.85119 14.1014 3.47631 13.4763C4.10143 12.8512 4.94928 12.5 5.83333 12.5H9.16667C10.0507 12.5 10.8986 12.8512 11.5237 13.4763C12.1488 14.1014 12.5 14.9493 12.5 15.8333V17.5" stroke="currentColor" stroke-width="2" stroke-linecap="round" stroke-linejoin="round"/>
<path d="M13.3334 9.16667L15 10.8333L18.3334 7.5" stroke="currentColor" stroke-width="2" stroke-linecap="round" stroke-linejoin="round"/>
</g>
<defs>
<clipPath id="clip0_1745_822">
<rect width="20" height="20" fill="currentColor"/>
</clipPath>
</defs>
</svg>
