<svg width="100%" height="100%" viewBox="0 0 14 15" fill="none" xmlns="http://www.w3.org/2000/svg">
<g id="Contributor" clip-path="url(#clip0_1637_152739)">
<path id="Vector" d="M5.25002 6.91667C6.53869 6.91667 7.58335 5.872 7.58335 4.58333C7.58335 3.29467 6.53869 2.25 5.25002 2.25C3.96136 2.25 2.91669 3.29467 2.91669 4.58333C2.91669 5.872 3.96136 6.91667 5.25002 6.91667Z" stroke="currentColor" stroke-width="1.5" stroke-linecap="round" stroke-linejoin="round"/>
<path id="Vector_2" d="M1.75 12.75V11.5833C1.75 10.9645 1.99583 10.371 2.43342 9.93342C2.871 9.49583 3.46449 9.25 4.08333 9.25H6.41667C7.0355 9.25 7.629 9.49583 8.06658 9.93342C8.50417 10.371 8.75 10.9645 8.75 11.5833V12.75" stroke="currentColor" stroke-width="1.5" stroke-linecap="round" stroke-linejoin="round"/>
<g id="Group 2609303">
<path id="Vector 348" d="M11 5V9" stroke="currentColor" stroke-width="1.5" stroke-linecap="round"/>
<path id="Vector 349" d="M9 7H13" stroke="currentColor" stroke-width="1.5" stroke-linecap="round"/>
</g>
</g>
<defs>
<clipPath id="clip0_1637_152739">
<rect width="14" height="14" fill="white" transform="translate(0 0.5)"/>
</clipPath>
</defs>
</svg>
