<svg width="56" height="56" viewBox="0 0 56 56" fill="none" xmlns="http://www.w3.org/2000/svg">
<path d="M36.1494 18.1377C36.1494 22.6385 32.5008 26.2871 28 26.2871C23.4992 26.2871 19.8506 22.6385 19.8506 18.1377C19.8506 13.6369 23.4992 9.98828 28 9.98828C32.5008 9.98828 36.1494 13.6369 36.1494 18.1377Z" stroke="#16181C" stroke-width="3" stroke-miterlimit="10"/>
<mask id="path-2-inside-1_232_138540" fill="white">
<path d="M7.56604 46.9916C8.77472 38.4374 16.1737 31.793 25.0552 31.793H30.945C39.8265 31.793 47.2388 38.4441 48.4342 47.0117"/>
</mask>
<path d="M4.59555 46.5719C4.36374 48.2125 5.50576 49.7303 7.14632 49.9621C8.78688 50.1939 10.3047 49.0519 10.5365 47.4114L4.59555 46.5719ZM45.4629 47.4262C45.6919 49.0672 47.2077 50.2118 48.8487 49.9829C50.4896 49.7539 51.6343 48.2381 51.4054 46.5971L45.4629 47.4262ZM10.5365 47.4114C11.5399 40.3102 17.6954 34.793 25.0552 34.793V28.793C14.652 28.793 6.00954 36.5646 4.59555 46.5719L10.5365 47.4114ZM25.0552 34.793H30.945V28.793H25.0552V34.793ZM30.945 34.793C38.3056 34.793 44.471 40.3168 45.4629 47.4262L51.4054 46.5971C50.0066 36.5713 41.3474 28.793 30.945 28.793V34.793Z" fill="#16181C" mask="url(#path-2-inside-1_232_138540)"/>
<path d="M54.5 28C54.5 42.6355 42.6355 54.5 28 54.5C13.3645 54.5 1.5 42.6355 1.5 28C1.5 13.3645 13.3645 1.5 28 1.5C42.6355 1.5 54.5 13.3645 54.5 28Z" stroke="#16181C" stroke-width="3" stroke-miterlimit="10"/>
</svg>
