<svg width="100%" height="100%" viewBox="0 0 14 15" fill="none" xmlns="http://www.w3.org/2000/svg">
<g id="Invite" clip-path="url(#clip0_1928_18932)">
<path id="Vector" d="M5.25002 6.91667C6.53869 6.91667 7.58335 5.872 7.58335 4.58333C7.58335 3.29467 6.53869 2.25 5.25002 2.25C3.96136 2.25 2.91669 3.29467 2.91669 4.58333C2.91669 5.872 3.96136 6.91667 5.25002 6.91667Z" stroke="currentColor" stroke-width="1.5" stroke-linecap="round" stroke-linejoin="round"/>
<path id="Vector_2" d="M1.75 12.75V11.5833C1.75 10.9645 1.99583 10.371 2.43342 9.93342C2.871 9.49583 3.46449 9.25 4.08333 9.25H6.41667C7.0355 9.25 7.629 9.49583 8.06658 9.93342C8.50417 10.371 8.75 10.9645 8.75 11.5833V12.75" stroke="currentColor" stroke-width="1.5" stroke-linecap="round" stroke-linejoin="round"/>
<path id="Vector_3" d="M9.33331 2.32617C9.83522 2.45468 10.2801 2.74658 10.5978 3.15585C10.9155 3.56513 11.0879 4.06849 11.0879 4.58659C11.0879 5.10469 10.9155 5.60805 10.5978 6.01732C10.2801 6.4266 9.83522 6.7185 9.33331 6.84701" stroke="currentColor" stroke-width="1.5" stroke-linecap="round" stroke-linejoin="round"/>
<path id="Vector_4" d="M12.25 12.7504V11.5837C12.247 11.0687 12.0738 10.5692 11.7572 10.163C11.4407 9.75673 10.9986 9.46663 10.5 9.33789" stroke="currentColor" stroke-width="1.5" stroke-linecap="round" stroke-linejoin="round"/>
</g>
<defs>
<clipPath id="clip0_1928_18932">
<rect width="14" height="14" fill="white" transform="translate(0 0.5)"/>
</clipPath>
</defs>
</svg>
