<svg width="24" height="24" viewBox="0 0 24 24" fill="none" xmlns="http://www.w3.org/2000/svg">
<path d="M19.7773 4.22299C19.3868 3.83241 18.7536 3.83231 18.363 4.22278C17.9725 4.61324 17.9724 5.24641 18.3628 5.63699C20.0501 7.32474 20.9979 9.61352 20.9979 12C20.9979 14.3865 20.0501 16.6752 18.3628 18.363C17.9724 18.7536 17.9725 19.3867 18.363 19.7772C18.7536 20.1677 19.3868 20.1676 19.7773 19.777C21.8394 17.7142 22.9979 14.9168 22.9979 12C22.9979 9.08319 21.8394 6.2858 19.7773 4.22299Z" fill="#bab9bd"/>
<path d="M16.2473 7.75299C15.8568 7.36241 15.2236 7.36231 14.833 7.75278C14.4425 8.14324 14.4424 8.77641 14.8328 9.16699C15.5827 9.9171 16.004 10.9343 16.004 11.995C16.004 13.0556 15.5827 14.0729 14.8328 14.823C14.4424 15.2136 14.4425 15.8467 14.833 16.2372C15.2236 16.6277 15.8568 16.6276 16.2473 16.237C17.3721 15.1118 18.004 13.586 18.004 11.995C18.004 10.404 17.3721 8.87816 16.2473 7.75299Z" fill="#bab9bd"/>
<path fill-rule="evenodd" clip-rule="evenodd" d="M12 5C12 4.61559 11.7797 4.26522 11.4332 4.0987C11.0867 3.93218 10.6755 3.979 10.3753 4.21913L5.64922 8H2C1.44772 8 1 8.44772 1 9V15C1 15.5523 1.44772 16 2 16H5.64922L10.3753 19.7809C10.6755 20.021 11.0867 20.0678 11.4332 19.9013C11.7797 19.7348 12 19.3844 12 19V5ZM6.62469 9.78087L10 7.08062V16.9194L6.62469 14.2191C6.44738 14.0773 6.22707 14 6 14H3V10H6C6.22707 10 6.44738 9.92272 6.62469 9.78087Z" fill="#bab9bd"/>
</svg>
