<svg width="25" height="24" viewBox="0 0 25 24" fill="none" xmlns="http://www.w3.org/2000/svg">
<path d="M20.75 6.75H5.75C5.55109 6.75 5.36032 6.67098 5.21967 6.53033C5.07902 6.38968 5 6.19891 5 6C5 5.80109 5.07902 5.61032 5.21967 5.46967C5.36032 5.32902 5.55109 5.25 5.75 5.25H18.5C18.6989 5.25 18.8897 5.17098 19.0303 5.03033C19.171 4.88968 19.25 4.69891 19.25 4.5C19.25 4.30109 19.171 4.11032 19.0303 3.96967C18.8897 3.82902 18.6989 3.75 18.5 3.75H5.75C5.15326 3.75 4.58097 3.98705 4.15901 4.40901C3.73705 4.83097 3.5 5.40326 3.5 6V18C3.5 18.5967 3.73705 19.169 4.15901 19.591C4.58097 20.0129 5.15326 20.25 5.75 20.25H20.75C21.1478 20.25 21.5294 20.092 21.8107 19.8107C22.092 19.5294 22.25 19.1478 22.25 18.75V8.25C22.25 7.85218 22.092 7.47064 21.8107 7.18934C21.5294 6.90804 21.1478 6.75 20.75 6.75ZM17.375 14.25C17.1525 14.25 16.935 14.184 16.75 14.0604C16.565 13.9368 16.4208 13.7611 16.3356 13.5555C16.2505 13.35 16.2282 13.1238 16.2716 12.9055C16.315 12.6873 16.4222 12.4868 16.5795 12.3295C16.7368 12.1722 16.9373 12.065 17.1555 12.0216C17.3738 11.9782 17.6 12.0005 17.8055 12.0856C18.0111 12.1708 18.1868 12.315 18.3104 12.5C18.434 12.685 18.5 12.9025 18.5 13.125C18.5 13.4234 18.3815 13.7095 18.1705 13.9205C17.9595 14.1315 17.6734 14.25 17.375 14.25Z" fill="black"/>
</svg>
